<?xml version="1.0" standalone="no"?>
<!DOCTYPE svg PUBLIC "-//W3C//DTD SVG 1.1//EN" "http://www.w3.org/Graphics/SVG/1.1/DTD/svg11.dtd" >
<svg xmlns="http://www.w3.org/2000/svg">
<metadata></metadata>
<defs>
<font id="neuzeitbld" horiz-adv-x="1024" >
<font-face units-per-em="2048" ascent="1638" descent="-410" />
<missing-glyph horiz-adv-x="565" />
<glyph horiz-adv-x="2048" />
<glyph horiz-adv-x="2048" />
<glyph unicode="&#xd;" horiz-adv-x="681" />
<glyph unicode=" "  horiz-adv-x="565" />
<glyph unicode="&#x09;" horiz-adv-x="565" />
<glyph unicode="&#xa0;" horiz-adv-x="565" />
<glyph unicode="!" horiz-adv-x="587" d="M141 123q0 66 43 108.5t108.5 42.5t108.5 -42.5t43 -108.5q0 -63 -43 -105.5t-108.5 -42.5t-108.5 42t-43 106zM166 426v938h254v-938h-254z" />
<glyph unicode="&#x22;" horiz-adv-x="909" d="M193 1364h210l-43 -565h-122zM504 1364h211l-43 -565h-123z" />
<glyph unicode="#" d="M59 600h220l28 182h-192l-4 140h215l55 381h137l-53 -381h178l57 381h140l-56 -381h177l2 -140h-197l-27 -182h174l2 -137h-196l-62 -410h-139l60 410h-179l-61 -410h-139l59 410h-197zM418 600h180l29 184h-183z" />
<glyph unicode="$" horiz-adv-x="1069" d="M98 971q0 162 104.5 268.5t272.5 116.5v145h96v-143q131 -23 207 -67t121 -124q39 -68 45 -170h-229q-8 63 -41 96.5t-103 45.5v-346q16 -6 41 -15q104 -39 187 -86q168 -100 168 -301q0 -102 -54.5 -195.5t-142.5 -140.5q-76 -41 -199 -55v-180h-96v180 q-217 12 -319 176q-31 47 -41.5 88t-14.5 117h234q0 -135 141 -166v356q-205 72 -291 163t-86 237zM332 985q0 -59 30.5 -93t112.5 -67v314q-143 -20 -143 -154zM571 215q70 8 110 52t40 110q0 59 -34 96t-116 64v-322z" />
<glyph unicode="%" horiz-adv-x="1390" d="M82 932v176q0 141 60.5 208.5t189.5 67.5q254 0 254 -266v-217q0 -123 -64.5 -188.5t-185.5 -65.5q-137 0 -195.5 65.5t-58.5 219.5zM203 29l901 1360l82 -52l-901 -1360zM244 924q0 -80 18.5 -106.5t71.5 -26.5t73.5 28.5t20.5 106.5v186q0 70 -20.5 98.5t-69.5 28.5 q-57 0 -75.5 -26.5t-18.5 -104.5v-184zM803 264v176q0 141 61.5 209t188.5 68q254 0 254 -266v-218q0 -125 -64.5 -189t-185.5 -64q-135 0 -194.5 65.5t-59.5 218.5zM965 254q0 -78 18 -105.5t71.5 -27.5t74 29.5t20.5 107.5v186q0 70 -20.5 98.5t-67.5 28.5 q-57 0 -76.5 -27.5t-19.5 -105.5v-184z" />
<glyph unicode="&#x26;" horiz-adv-x="1304" d="M74 356q0 131 63.5 220.5t233.5 197.5q-66 92 -89.5 151.5t-23.5 127.5q0 127 96.5 208.5t245.5 81.5q145 0 239.5 -80.5t94.5 -207.5q0 -113 -80 -209q-41 -53 -145 -123l188 -252q109 96 203 203l172 -154q-128 -137 -230 -231l230 -289h-299l-107 131 q-90 -72 -159 -106q-119 -59 -232 -60q-174 0 -287.5 110.5t-113.5 280.5zM330 375q0 -72 52 -124t124 -52q104 0 209 116l-213 275q-96 -59 -134 -107.5t-38 -107.5zM504 1049q-1 -60 71 -152q121 76 121 154q0 41 -25.5 67.5t-66.5 26.5t-70.5 -29t-29.5 -67z" />
<glyph unicode="'" horiz-adv-x="454" d="M121 1364h211l-43 -565h-123z" />
<glyph unicode="(" horiz-adv-x="667" d="M74 471.5q0 319.5 141 634.5q51 115 89 174t120 150l166 -156q-96 -129 -156 -256q-127 -276 -127 -557q0 -256 117 -512q62 -131 166 -266l-178 -150q-125 164 -199 322q-139 297 -139 616.5z" />
<glyph unicode=")" horiz-adv-x="667" d="M78 -311q100 131 155 256q125 268 125 553q0 262 -116 514q-64 135 -164 266l178 152q78 -104 116 -167t81 -157q141 -299 141 -619q0 -315 -141 -632q-51 -113 -90 -173.5t-121 -148.5z" />
<glyph unicode="*" horiz-adv-x="847" d="M111 1085l51 136l184 -54v197h146v-195l192 66l51 -135l-207 -76l136 -164l-113 -86l-131 164l-115 -164l-125 86l119 164z" />
<glyph unicode="+" d="M88 602v166h342l-2 352h166v-352h342v-166h-342v-352h-164v352h-342z" />
<glyph unicode="," horiz-adv-x="532" d="M66 -227l118 506l240 -60l-182 -487z" />
<glyph unicode="-" horiz-adv-x="452" d="M0 383v229h453v-229h-453z" />
<glyph unicode="." horiz-adv-x="532" d="M115 123q0 66 43 108.5t108.5 42.5t108.5 -42.5t43 -108.5q0 -63 -43 -105.5t-108.5 -42.5t-108.5 42t-43 106z" />
<glyph unicode="/" horiz-adv-x="802" d="M-106 -424l675 1788h183l-680 -1788h-178z" />
<glyph unicode="0" d="M84 475v436q0 248 92 349q115 125 330 124q193 0 309 -104q68 -61 95.5 -137t27.5 -199v-528q0 -229 -113 -336q-115 -106 -311 -107q-217 0 -330 113q-57 61 -78.5 143t-21.5 246zM346 444q0 -129 37 -179t131 -50q88 0 127 54.5t39 176.5v478q0 113 -40 164t-128 51 q-90 0 -128 -52.5t-38 -177.5v-465z" />
<glyph unicode="1" horiz-adv-x="815" d="M129 885v241l510 267v-1393h-264v1016z" />
<glyph unicode="2" horiz-adv-x="1007" d="M47 0l477 727q78 117 101.5 168t23.5 100q0 66 -45 109t-117 43q-90 0 -131 -53.5t-43 -173.5h-239v14q0 207 115.5 329.5t312.5 122.5q180 0 295.5 -102t115.5 -262q0 -94 -37.5 -189.5t-130.5 -228.5l-253 -375h385v-229h-830z" />
<glyph unicode="3" d="M51 369l236 8q14 -78 63 -123t125 -45q88 0 148.5 60.5t60.5 148.5q0 92 -59.5 150.5t-151.5 58.5q-70 0 -125 -35l-147 125l311 416h-391v225h829l-379 -510q168 -14 266.5 -126t98.5 -288q0 -199 -129 -330t-324 -131q-115 0 -211 47.5t-151 131.5t-70 217z" />
<glyph unicode="4" horiz-adv-x="1017" d="M68 279v219l479 866h276v-860h125v-223h-123v-281h-256v279h-501zM283 504h286v528z" />
<glyph unicode="5" d="M70 285l227 86q31 -78 77 -114t115 -36q84 0 141.5 60.5t57.5 148.5t-58.5 149.5t-142.5 61.5q-104 0 -174 -92h-170v809h697v-238h-461v-293q88 37 170 37q170 0 283.5 -123t113.5 -305q0 -203 -126 -333t-322 -130q-193 0 -316 123q-66 66 -112 189z" />
<glyph unicode="6" d="M66 410q0 172 151 411l340 537h297l-348 -539q49 12 72 12q156 0 267 -118.5t111 -286.5q0 -186 -133 -319.5t-321 -133.5q-186 0 -311 125t-125 312zM315 414q0 -84 55.5 -140.5t139.5 -56.5t140.5 58.5t56.5 146.5q0 78 -56.5 134t-134.5 56q-84 0 -142.5 -57 t-58.5 -141z" />
<glyph unicode="7" horiz-adv-x="870" d="M63 0l445 1120h-440v238h806l-538 -1358h-273z" />
<glyph unicode="8" d="M68 379q0 248 204 336q-162 78 -161 280q0 172 114.5 280.5t292.5 108.5q176 0 290 -106.5t114 -271.5q0 -207 -164 -291q197 -88 196 -320q0 -186 -126 -304t-320.5 -118t-317 113t-122.5 293zM322 397q0 -80 54 -134t136 -54q80 0 134 55t54 135t-56 135.5t-134 55.5 q-80 0 -134 -55.5t-54 -137.5zM348 993q0 -70 49 -119t119 -49t121 50.5t51 118t-51 116.5t-123 49t-119 -47t-47 -119z" />
<glyph unicode="9" d="M66 936q0 190 130 319t322 129q188 0 313 -125.5t125 -316.5q0 -174 -145 -407l-338 -535h-295l346 535q-47 -6 -61 -7q-170 0 -283.5 117t-113.5 291zM319 946q0 -82 55.5 -138t135.5 -56q84 0 141.5 55t57.5 137q0 84 -56.5 141.5t-138.5 57.5q-80 0 -137.5 -58.5 t-57.5 -138.5z" />
<glyph unicode=":" horiz-adv-x="532" d="M115 123q0 66 43 108.5t108.5 42.5t108.5 -42.5t43 -108.5q0 -63 -43 -105.5t-108.5 -42.5t-108.5 42t-43 106zM115 796.5q0 65.5 43 108.5t108.5 43t108.5 -42.5t43 -108.5q0 -63 -43 -106.5t-108.5 -43.5t-108.5 42t-43 107.5z" />
<glyph unicode=";" horiz-adv-x="532" d="M66 -227l118 506l240 -60l-182 -487zM141 765.5q0 65.5 43 109t108.5 43.5t107.5 -43.5t42 -109t-43 -108.5t-106 -41q-66 0 -109 42t-43 107.5z" />
<glyph unicode="&#x3c;" d="M16 592v184l990 428v-180l-773 -338l773 -311v-182z" />
<glyph unicode="=" d="M86 440v164h850v-164h-850zM86 754v164h850v-164h-850z" />
<glyph unicode="&#x3e;" d="M16 193v182l772 336l-772 311v182l990 -399v-184z" />
<glyph unicode="?" horiz-adv-x="913" d="M51 997q4 182 106.5 287t282.5 105q176 0 287 -103.5t111 -265.5q0 -186 -183 -322q-78 -57 -97 -86.5t-19 -95.5q0 -16 2 -24v-48h-260q-4 37 -5 72q0 125 33 182.5t154 153.5q63 49 86.5 85t23.5 81q0 59 -38.5 97t-100.5 38q-66 0 -103.5 -41t-37.5 -115h-242z M260 123q0 66 43 108.5t108.5 42.5t107.5 -42.5t42 -108.5q0 -63 -42 -105.5t-107.5 -42.5t-108.5 42t-43 106z" />
<glyph unicode="@" horiz-adv-x="1576" d="M125 674q0 291 209 495.5t502 204.5q254 0 437 -168t183 -399q0 -207 -147.5 -371t-331.5 -164q-131 0 -141 109q-74 -61 -124 -85t-108 -24q-100 0 -161.5 71t-61.5 183q0 217 137 390.5t309 173.5q59 0 97.5 -17.5t85.5 -68.5l20 51h178l-213 -566q-27 -70 -26 -96 q0 -41 51 -41q57 0 121 43q94 59 152.5 170t58.5 230q0 199 -154 340t-371 141q-248 0 -424 -177t-176 -427q0 -244 171 -416t413 -172q223 0 393 143q63 56 133 154h101q-57 -119 -106.5 -177.5t-137.5 -111.5q-172 -104 -389 -104q-279 0 -479.5 202.5t-200.5 483.5z M545 451q0 -94 84 -95q55 0 118.5 66t100.5 162l102 264q8 18 8 51q0 49 -22.5 77t-63.5 28q-106 0 -217 -203q-111 -201 -110 -350z" />
<glyph unicode="A" horiz-adv-x="1294" d="M2 0l471 1364h352l465 -1364h-307l-78 236h-524l-82 -236h-297zM453 465h381l-191 565z" />
<glyph unicode="B" horiz-adv-x="1171" d="M143 0v1364h441q164 0 258 -32t149 -105q72 -100 72 -228q0 -143 -88 -235q-50 -51 -144 -82q102 -23 162 -74q98 -86 99 -246q0 -96 -38 -174.5t-104 -121.5q-98 -66 -305 -66h-502zM422 207h137h12q123 0 179 40q58 42 59 138q0 104 -59.5 147t-206.5 43h-121v-368z M422 784h113q245 0 245 185q0 98 -60.5 140t-199.5 42h-98v-367z" />
<glyph unicode="C" horiz-adv-x="1298" d="M76 678q0 311 190.5 512t487.5 201q184 0 331 -76q86 -45 185 -139l-183 -187q-158 143 -321 144q-180 0 -294 -126t-114 -323t120 -325t302 -128q184 1 307 142l168 -195q-106 -98 -190 -137q-143 -66 -315 -66q-297 0 -485.5 197t-188.5 506z" />
<glyph unicode="D" horiz-adv-x="1310" d="M141 0v1364h389q317 0 490 -152q215 -186 215 -514q0 -166 -57.5 -308t-159.5 -234q-170 -156 -473 -156h-404zM422 231h53q211 0 322 95q155 132 155 361q0 206 -116.5 328t-311.5 122h-102v-906z" />
<glyph unicode="E" horiz-adv-x="948" d="M96 0v1364h758v-229h-479v-336h479v-228h-477v-342h477v-229h-758z" />
<glyph unicode="F" horiz-adv-x="956" d="M143 0v1364h760v-229h-481v-336h479v-228h-479v-571h-279z" />
<glyph unicode="G" horiz-adv-x="1540" d="M76 678q0 307 198.5 510t499.5 203q344 0 555 -263l-213 -165q-143 170 -336 170q-180 0 -301 -130.5t-121 -324.5q0 -188 125 -319.5t305 -131.5q188 0 304 138q53 63 84 172h-381v227h684v-72q0 -309 -199 -508q-203 -209 -504 -209q-299 0 -499.5 201t-200.5 502z" />
<glyph unicode="H" horiz-adv-x="1363" d="M143 0v1364h279v-576h518v576h281v-1364h-279v559h-520v-559h-279z" />
<glyph unicode="I" horiz-adv-x="565" d="M143 0v1364h279v-1364h-279z" />
<glyph unicode="J" horiz-adv-x="786" d="M61 -20v247q12 0 24.5 -1t20 -2t15.5 -1q160 0 217 82q29 41 38 91t9 157v582h-322v229h603v-881q0 -150 -32 -239.5t-106 -151.5q-76 -63 -168 -86q-100 -25 -299 -26z" />
<glyph unicode="K" horiz-adv-x="1153" d="M143 0v1364h279v-592l387 592h326l-443 -657l443 -707h-328l-385 606v-606h-279z" />
<glyph unicode="L" horiz-adv-x="923" d="M143 0v1364h279v-1133h457v-231h-736z" />
<glyph unicode="M" horiz-adv-x="1736" d="M143 0v1364h318l407 -827l408 827h317v-1364h-278v850l-447 -891l-446 891v-850h-279z" />
<glyph unicode="N" horiz-adv-x="1413" d="M143 0v1364h275l571 -852v852h281v-1364h-273l-575 862v-862h-279z" />
<glyph unicode="O" horiz-adv-x="1562" d="M76 676q0 303 205.5 509t504.5 206t500 -202t201 -501q0 -303 -202 -508t-499 -205q-299 0 -504.5 203t-205.5 498zM360 680q0 -190 121 -319.5t299 -129.5q180 0 301 128t121 323q0 193 -120.5 320.5t-301.5 127.5q-178 0 -299 -129t-121 -321z" />
<glyph unicode="P" horiz-adv-x="1128" d="M143 0v1364h435q244 0 374.5 -113.5t130.5 -324.5t-131 -334t-356 -123h-174v-469h-279zM422 700h121q123 0 190.5 56.5t67.5 158.5q0 100 -67.5 159t-182.5 59h-129v-433z" />
<glyph unicode="Q" horiz-adv-x="1564" d="M76 674q0 305 204.5 511t507.5 206q297 0 498 -200t201 -499q0 -111 -34 -224.5t-87 -193.5q-27 -33 -35 -45l129 -141l-198 -164l-125 146q-158 -94 -359 -95q-293 0 -497.5 204t-204.5 495zM362 682q0 -190 119 -319.5t293 -129.5q98 0 168 43l-94 111l199 166l98 -111 q57 113 57 248q0 186 -120.5 313t-297.5 127q-180 0 -301 -128t-121 -320z" />
<glyph unicode="R" horiz-adv-x="1196" d="M143 0v1364h420q254 0 388 -109.5t134 -318.5q0 -162 -83.5 -267.5t-241.5 -146.5l377 -522h-338l-377 543v-543h-279zM422 707h127q121 0 186.5 55t65.5 158q0 98 -60.5 155.5t-167.5 57.5h-151v-426z" />
<glyph unicode="S" horiz-adv-x="1067" d="M61 385v12h273v-16q0 -70 53 -115t133 -45q78 0 129 41t51 104.5t-44 99.5t-177 83q-207 76 -291 151q-117 104 -116 277q0 186 125 300t327 114q199 0 322 -111t139 -307h-283q-14 170 -178 170q-76 0 -122 -39t-46 -105q0 -68 45 -103.5t199 -92.5q209 -76 285 -152 q109 -104 108 -264q0 -184 -130 -298t-339 -114q-213 0 -338 111t-125 299z" />
<glyph unicode="T" horiz-adv-x="942" d="M8 1135v229h930v-229h-328v-1135h-278v1135h-324z" />
<glyph unicode="U" horiz-adv-x="1306" d="M119 575v789h280v-799q0 -174 62 -250q70 -84 192 -84q131 0 199 95q53 74 53 239v799h281v-789q0 -297 -135 -444q-143 -156 -396 -156q-264 0 -413 168q-66 76 -94.5 174.5t-28.5 257.5z" />
<glyph unicode="V" horiz-adv-x="1148" d="M2 1364h289l276 -915l289 915h291l-432 -1364h-297z" />
<glyph unicode="W" horiz-adv-x="1753" d="M2 1364h297l221 -862l219 862h279l215 -877l225 877h293l-381 -1364h-280l-218 893l-215 -893h-280z" />
<glyph unicode="X" horiz-adv-x="1189" d="M8 0l430 721l-383 643h324l217 -389l227 389h320l-387 -643l424 -721h-318l-266 473l-264 -473h-324z" />
<glyph unicode="Y" horiz-adv-x="1140" d="M-20 1364h331l264 -473l259 473h329l-450 -764v-600h-279v600z" />
<glyph unicode="Z" horiz-adv-x="1126" d="M27 0l637 1135h-566v229h1004l-635 -1137h573v-227h-1013z" />
<glyph unicode="[" horiz-adv-x="667" d="M133 -424v1788h440v-152h-217v-1482h217v-154h-440z" />
<glyph unicode="\" horiz-adv-x="802" d="M-106 1364h180l678 -1788h-183z" />
<glyph unicode="]" horiz-adv-x="667" d="M94 -272h219v1484h-217v152h436v-1788h-438v152z" />
<glyph unicode="^" d="M23 764l393 600h190l395 -600h-184l-307 450l-303 -450h-184z" />
<glyph unicode="_" d="M0 -145h1024v-197h-1024v197z" />
<glyph unicode="`" d="M199 1374h262l170 -284h-160z" />
<glyph unicode="a" horiz-adv-x="1243" d="M66 463q0 223 135 369.5t342 146.5q182 0 309 -154v121h262v-946h-260v129q-127 -160 -332 -160q-201 0 -328.5 138.5t-127.5 355.5zM342 467q0 -125 71.5 -208t180.5 -83q106 0 182 83t80 206v14q0 123 -73.5 202t-188.5 79q-109 0 -180.5 -83t-71.5 -210z" />
<glyph unicode="b" horiz-adv-x="1239" d="M129 0v1364h260v-533q127 147 307 148q209 0 343.5 -143.5t134.5 -368.5q0 -221 -129.5 -359.5t-335.5 -138.5q-109 0 -184 35t-136 117v-121h-260zM385 461q0 -125 71.5 -205t184.5 -80t183.5 81t70.5 208t-71.5 211t-178.5 84q-109 0 -184.5 -87t-75.5 -212z" />
<glyph unicode="c" horiz-adv-x="958" d="M66 469q0 223 141 366.5t362 143.5q203 0 379 -156l-174 -159q-84 84 -196 84q-106 0 -178 -78t-72 -195q0 -119 73.5 -197.5t186.5 -78.5h2q93 0 184 77l158 -167q-154 -139 -365 -140q-217 0 -359 141.5t-142 358.5z" />
<glyph unicode="d" horiz-adv-x="1243" d="M66 463q0 223 135 369.5t338 146.5q182 0 313 -137v522h262v-1364h-260v123q-61 -84 -135 -119t-184 -35q-209 0 -339 136.5t-130 357.5zM342 463q0 -125 72.5 -206t183.5 -81t182.5 83t71.5 210t-71.5 209t-182.5 82t-183.5 -85t-72.5 -212z" />
<glyph unicode="e" horiz-adv-x="1136" d="M66 475q0 223 139 363.5t360 140.5q227 0 370.5 -145.5t143.5 -374.5q0 -4 -1 -19.5t-1 -27.5h-739q14 -98 81.5 -155.5t164.5 -57.5q72 0 130 32.5t89 90.5l239 -66q-35 -70 -62.5 -104.5t-80.5 -75.5q-141 -109 -317 -109q-225 0 -370.5 142.5t-145.5 365.5zM336 561 h475q-16 92 -80.5 145.5t-161.5 53.5q-94 0 -154.5 -51.5t-78.5 -147.5z" />
<glyph unicode="f" horiz-adv-x="583" d="M43 727v219h104v53q0 365 345 365h38v-240q-68 -10 -95 -37.5t-27 -87.5v-51h122v-221h-122v-727h-261v727h-104z" />
<glyph unicode="g" horiz-adv-x="1204" d="M37 465q0 231 131 372.5t346 141.5q186 0 307 -150v117h254v-878q0 -145 -28.5 -236.5t-96.5 -157.5q-150 -143 -393 -143q-272 0 -467 188l162 164q123 -131 295 -131q129 0 201.5 74t72.5 205v98q-127 -160 -334 -160q-195 0 -322.5 139.5t-127.5 356.5zM315 477 q0 -121 72 -199.5t182 -78.5q115 0 180.5 69.5t65.5 190.5q0 135 -66.5 212t-181.5 77q-111 0 -181.5 -76t-70.5 -195z" />
<glyph unicode="h" horiz-adv-x="1083" d="M129 0v1364h260v-518q113 133 258 133q135 0 227 -88q47 -47 67 -105.5t20 -160.5v-625h-261v588q-2 78 -40.5 125t-102.5 47q-78 0 -123 -53.5t-45 -143.5v-563h-260z" />
<glyph unicode="i" horiz-adv-x="518" d="M115 1218.5q0 63.5 41 103.5t102 40q63 0 104 -41t41 -102q0 -63 -40.5 -104.5t-104.5 -41.5q-61 0 -102 41t-41 104.5zM129 0v946h260v-946h-260z" />
<glyph unicode="j" horiz-adv-x="518" d="M-47 -197h37q66 0 102.5 43t36.5 123v977h260v-979q0 -207 -91 -305t-282 -98q-35 0 -63 2v237zM115 1218.5q0 63.5 41 103.5t102 40q63 0 104 -41t41 -102q0 -63 -40.5 -104.5t-104.5 -41.5q-61 0 -102 41t-41 104.5z" />
<glyph unicode="k" horiz-adv-x="968" d="M129 0v1364h260v-780l264 362h301l-323 -454l323 -492h-301l-264 391v-391h-260z" />
<glyph unicode="l" horiz-adv-x="518" d="M129 0v1364h260v-1364h-260z" />
<glyph unicode="m" horiz-adv-x="1619" d="M129 0v946h260v-119q86 152 260 152q188 0 258 -158q94 158 285 158q147 0 229 -88q45 -47 60.5 -104.5t15.5 -168.5v-618h-260v569q0 190 -143 191q-72 0 -112 -50.5t-40 -140.5v-569h-260v561q0 199 -143 199q-150 0 -150 -199v-561h-260z" />
<glyph unicode="n" horiz-adv-x="1087" d="M129 0v946h260v-115q51 80 109.5 114t146.5 34q145 0 234 -88q49 -49 66.5 -111.5t17.5 -181.5v-598h-261v586q0 174 -147 174q-74 0 -120 -51.5t-46 -133.5v-575h-260z" />
<glyph unicode="o" horiz-adv-x="1163" d="M66 471q0 225 143 366.5t371 141.5q223 0 369.5 -143.5t146.5 -362.5q0 -217 -147.5 -360.5t-368.5 -143.5q-225 0 -369.5 140.5t-144.5 361.5zM328 471q0 -121 70.5 -196.5t183 -75.5t182.5 75.5t70 200.5q0 123 -69 196.5t-183.5 73.5t-184 -74.5t-69.5 -199.5z" />
<glyph unicode="p" horiz-adv-x="1245" d="M129 -424v1370h260v-117q111 150 311 150q209 0 344.5 -143.5t135.5 -366.5q0 -225 -130 -362.5t-343 -137.5q-203 0 -318 133v-526h-260zM389 463q0 -131 68.5 -209t183.5 -78t188.5 81t73.5 210t-71.5 211t-184 82t-185.5 -84t-73 -213z" />
<glyph unicode="q" horiz-adv-x="1241" d="M66 463q0 229 134 372.5t349 143.5q188 0 303 -141v108h260v-1372h-260v528q-117 -133 -322 -133q-207 0 -335.5 136.5t-128.5 357.5zM342 467q0 -125 72.5 -208t181.5 -83q111 0 184.5 84t73.5 209q0 127 -72.5 209t-185.5 82q-109 0 -181.5 -83t-72.5 -210z" />
<glyph unicode="r" horiz-adv-x="681" d="M129 0v946h260v-137q63 170 236 170h30v-264h-53q-213 0 -213 -258v-457h-260z" />
<glyph unicode="s" horiz-adv-x="858" d="M53 276h250q14 -118 121 -118h2q45 0 75.5 25.5t30.5 64.5q0 45 -35.5 69.5t-142.5 57.5q-154 45 -224.5 118.5t-70.5 184.5q0 135 100.5 218t266.5 83q162 0 256 -82t98 -225h-245v16q0 43 -34 70.5t-87 27.5q-45 0 -75 -23.5t-30 -60t25.5 -60.5t85.5 -42 q227 -68 295 -131q80 -76 80 -197q0 -137 -101.5 -220t-265.5 -83q-170 0 -268.5 80t-106.5 227z" />
<glyph unicode="t" horiz-adv-x="579" d="M33 731v219h106v254h262v-254h119v-219h-119v-452q0 -33 16.5 -47.5t57.5 -14.5h45v-217h-209q-90 0 -131 42t-41 138v551h-106z" />
<glyph unicode="u" horiz-adv-x="1052" d="M111 346v600h260v-581q0 -80 43 -129.5t114.5 -49.5t111.5 42t40 120v598h262v-598q0 -104 -24.5 -169.5t-81.5 -115.5q-115 -94 -310 -94q-203 0 -309 96.5t-106 280.5z" />
<glyph unicode="v" horiz-adv-x="948" d="M-2 946h268l209 -565l209 565h268l-346 -946h-268z" />
<glyph unicode="w" horiz-adv-x="1490" d="M-2 946h264l189 -575l165 575h250l170 -575l193 575h264l-309 -946h-269l-167 580l-170 -580h-277z" />
<glyph unicode="x" horiz-adv-x="980" d="M0 946h326l172 -252l170 252h315l-338 -477l334 -469h-315l-166 256l-174 -256h-308l332 469z" />
<glyph unicode="y" horiz-adv-x="958" d="M-2 946h276l191 -563l221 563h277l-535 -1378h-278l178 452z" />
<glyph unicode="z" horiz-adv-x="860" d="M31 0l397 727h-360v219h768l-398 -727h367v-219h-774z" />
<glyph unicode="{" horiz-adv-x="655" d="M98 430v154q63 14 88 55t25 133v336q0 156 71.5 222.5t241.5 66.5q39 0 78 -2v-150l-24 -2q-104 0 -140.5 -26.5t-36.5 -102.5v-65v-291q0 -102 -25.5 -153.5t-99.5 -96.5q72 -43 98.5 -97.5t26.5 -154.5v-285v-67q2 -78 37 -103.5t135 -25.5h29v-152h-31q-20 -2 -51 -2 q-168 0 -238.5 68.5t-70.5 228.5v326q0 90 -24.5 131t-88.5 55z" />
<glyph unicode="|" d="M430 -358v1722h162v-1722h-162z" />
<glyph unicode="}" horiz-adv-x="655" d="M51 -227l25 2q104 0 140 26.5t36 102.5v65v291q0 102 25.5 152.5t99.5 95.5q-72 43 -98.5 97t-26.5 155v287v67q-2 78 -36 103.5t-134 25.5h-31v152q43 2 80 2q170 0 240.5 -67.5t70.5 -229.5v-326q0 -90 25 -132t88 -56v-152q-63 -16 -88 -57t-25 -133v-336 q0 -156 -71.5 -221.5t-241.5 -65.5q-39 0 -78 2v150z" />
<glyph unicode="~" horiz-adv-x="1021" d="M4 1128q78 133 141.5 187.5t143.5 54.5q74 0 254 -80q154 -68 190 -67q51 0 93.5 39t95.5 133l96 -101q-78 -129 -140.5 -182t-140.5 -53q-43 0 -76.5 11t-156.5 63l-90 38q-80 35 -119 35q-55 0 -96 -38t-101 -142z" />
<glyph unicode="&#xa1;" horiz-adv-x="587" d="M141 823.5q0 65.5 43 108.5t108.5 43t108.5 -43t43 -108.5t-43 -108.5t-108.5 -43t-108.5 43t-43 108.5zM166 -416v938h256v-938h-256z" />
<glyph unicode="&#xa2;" horiz-adv-x="1015" d="M96 651q0 145 55.5 259t155.5 177q53 35 97.5 49.5t130.5 24.5v152h96v-150q98 -10 165.5 -43t149.5 -110l-166 -150q-39 39 -67.5 53.5t-81.5 24.5v-555q82 8 149 68l154 -160q-74 -66 -138.5 -93.5t-164.5 -37.5v-199h-96v199q-213 31 -326 157.5t-113 333.5zM344 666 q0 -227 191 -283v555q-190 -51 -191 -272z" />
<glyph unicode="&#xa3;" horiz-adv-x="1075" d="M90 0q6 147 77 232t193 96q27 45 29 47q33 55 33 98q0 92 -82 162h-236v125h138q-51 63 -70.5 113.5t-19.5 119.5q0 168 116.5 276.5t296.5 108.5q117 0 222.5 -56t150.5 -144q33 -61 37 -174h-234v14q-2 66 -50 113t-115.5 47t-115.5 -48.5t-48 -113.5 q0 -63 26.5 -111.5t110.5 -144.5h278v-125h-211q45 -88 46 -137q0 -80 -99 -201l15 -4l47 -19q31 -12 59 -28q100 -53 158 -53q55 0 119 65l24 -174q-84 -102 -207 -102q-82 0 -200 67l-56 31q-78 43 -123 43q-49 0 -77.5 -33t-30.5 -90h-201z" />
<glyph unicode="&#xa4;" horiz-adv-x="1363" d="M68 1247l118 119l207 -207q137 96 289 96t287 -92l202 201l117 -119l-201 -201q98 -135 99 -290q0 -147 -94 -283l202 -203l-116 -118l-203 202q-135 -98 -293 -98q-145 0 -291 98l-205 -202l-116 118l202 203q-94 133 -94 285q0 150 96 284zM377 756q0 -127 90 -218.5 t215 -91.5t215 91.5t90 218.5t-89 217t-214 90q-127 0 -217 -90t-90 -217z" />
<glyph unicode="&#xa5;" d="M18 1358h279l219 -518l219 518h269l-213 -453h172v-135h-236l-80 -172v-14h275v-135h-275v-449h-262v446h-283v138h283v14l-84 172h-240v135h175z" />
<glyph unicode="&#xa7;" d="M84 492q0 125 61.5 209.5t173.5 117.5q-174 82 -174 264q0 137 100.5 223.5t260.5 86.5q111 0 201 -41t137 -113q45 -69 49 -182h-223q-6 70 -48 109.5t-108 39.5q-61 0 -103 -38t-42 -91q0 -61 45 -98t186 -90q172 -66 246 -139q92 -98 92 -234q0 -223 -221 -326 q164 -96 164 -260q0 -150 -107.5 -246t-275.5 -96q-176 0 -281.5 98.5t-110.5 268.5h228q2 -82 48 -132t122 -50q66 0 109.5 43t43.5 108q0 68 -46 103.5t-187 83.5q-180 59 -250 135q-90 100 -90 246zM305 500q0 -84 58.5 -140.5t146.5 -54.5q86 0 144.5 56.5t58.5 138.5 q0 80 -59.5 137t-143.5 57t-144.5 -57t-60.5 -137z" />
<glyph unicode="&#xa8;" d="M154 1239q0 57 39.5 96t99 39t99.5 -39t40 -96t-40 -97t-99.5 -40t-99 40t-39.5 97zM590 1239q0 57 40 96t99 39t99 -39t40 -96t-40 -97t-99 -40t-99 40t-40 97z" />
<glyph unicode="&#xa9;" horiz-adv-x="1581" d="M76 682q0 295 209 504t505.5 209t505.5 -209t207 -504q0 -295 -209 -503t-503 -208q-297 0 -506 208t-209 503zM201 682q0 -246 172 -420t415 -174q242 0 413 174t171 420t-171 420t-413 174q-244 0 -415.5 -174t-171.5 -420zM399 692q0 188 115 308t295 120 q150 0 252 -84t113 -211h-156q-35 164 -213 164q-113 0 -179.5 -81t-66.5 -216q0 -137 66.5 -217t179.5 -80q94 0 150.5 54.5t68.5 156.5h158q-12 -158 -114.5 -250t-264.5 -92q-180 0 -292 118t-112 310z" />
<glyph unicode="&#xaa;" horiz-adv-x="681" d="M23 608v68h636v-68h-636zM33 1085q0 129 76.5 213t195.5 84q100 1 168 -73v55h160v-545h-158v60q-72 -78 -180 -78q-115 0 -188.5 80t-73.5 204zM201 1085q0 -66 39 -109.5t96 -43.5t98 47t41 115q0 61 -38 107t-89 46h-14l-66 -18q-41 -41 -54 -68.5t-13 -75.5z" />
<glyph unicode="&#xab;" horiz-adv-x="864" d="M74 487l194 344h170l-196 -344l196 -333h-168zM412 487l194 344h170l-196 -344l196 -333h-168z" />
<glyph unicode="&#xac;" d="M18 408v149h990v-557h-152v408h-838z" />
<glyph unicode="&#xad;" horiz-adv-x="452" d="M0 383v229h453v-229h-453z" />
<glyph unicode="&#xaf;" d="M326 1176v112h370v-112h-370z" />
<glyph unicode="&#xb0;" horiz-adv-x="770" d="M109 1114q0 115 81.5 196t196.5 81q113 0 192.5 -80t79.5 -195t-80.5 -194.5t-195.5 -79.5t-194.5 79.5t-79.5 192.5zM221 1116.5q0 -65.5 48 -114t114 -48.5q68 0 116 48.5t48 114t-48 113.5t-116 48q-66 0 -114 -48t-48 -113.5z" />
<glyph unicode="&#xb1;" d="M16 111v168h990v-168h-990zM16 733v168h412v387h168v-387h410v-166h-410v-368h-166v366h-414z" />
<glyph unicode="&#xb4;" d="M391 1090l170 284h262l-272 -284h-160z" />
<glyph unicode="&#xb6;" d="M59 993q0 113 56.5 204t152.5 132q82 35 209 35h410v-1579h-135v1491h-164v-1489h-137v846q-8 -2 -27 -2q-162 0 -263.5 100t-101.5 262z" />
<glyph unicode="&#xb7;" horiz-adv-x="323" d="M0 700.5q0 69.5 45 115.5t117 46q70 0 116 -46t46 -116q-2 -70 -47.5 -115.5t-114.5 -45.5q-72 0 -117 46t-45 115.5z" />
<glyph unicode="&#xb8;" d="M324 -332q74 39 114.5 84t81.5 129l178 -76q-55 -84 -111.5 -131t-156.5 -98z" />
<glyph unicode="&#xba;" horiz-adv-x="681" d="M23 608v68h636v-68h-636zM45 1092q0 127 82 208.5t213 81.5q127 0 211 -82.5t84 -207.5t-84 -208t-211 -83q-129 0 -212 82t-83 209zM205 1094q0 -68 37 -109t98 -41t98 41t37 107q0 68 -37 107.5t-98 39.5q-59 0 -97 -41t-38 -104z" />
<glyph unicode="&#xbb;" horiz-adv-x="864" d="M88 156l197 346l-197 334h168l197 -334l-197 -346h-168zM426 836h170l195 -334l-195 -346h-168l195 346z" />
<glyph unicode="&#xbf;" horiz-adv-x="913" d="M76 -70q0 98 42 172t140 146q78 59 97.5 89t19.5 97v21l-2 49h262q2 -39 2 -76q0 -121 -33 -180.5t-153 -153.5q-63 -47 -87 -82t-24 -80q0 -59 39 -98t100 -39q66 0 102.5 41t36.5 115h244q-2 -184 -105.5 -286.5t-283.5 -102.5q-176 0 -286.5 103.5t-110.5 264.5z M352 823q0 66 42 109t107.5 43t108.5 -43t43 -108.5t-43 -108.5t-108.5 -43t-108.5 42.5t-41 108.5z" />
<glyph unicode="&#xc0;" horiz-adv-x="1294" d="M2 0l471 1364h352l465 -1364h-307l-78 236h-524l-82 -236h-297zM357 1780h262l170 -284h-160zM453 465h381l-191 565z" />
<glyph unicode="&#xc1;" horiz-adv-x="1294" d="M2 0l471 1364h352l465 -1364h-307l-78 236h-524l-82 -236h-297zM453 465h381l-191 565zM518 1496l170 284h262l-272 -284h-160z" />
<glyph unicode="&#xc2;" horiz-adv-x="1294" d="M2 0l471 1364h352l465 -1364h-307l-78 236h-524l-82 -236h-297zM319 1498l209 284h240l197 -284h-181l-141 151l-143 -151h-181zM453 465h381l-191 565z" />
<glyph unicode="&#xc3;" horiz-adv-x="1294" d="M2 0l471 1364h352l465 -1364h-307l-78 236h-524l-82 -236h-297zM354 1521q55 225 215 226q63 0 162 -50l23 -10q29 -14 47 -14q43 0 59 72l166 -13q-53 -229 -211 -229q-57 0 -184 59q-31 16 -47 17q-41 0 -62 -72zM453 465h381l-191 565z" />
<glyph unicode="&#xc4;" horiz-adv-x="1294" d="M2 0l471 1364h352l465 -1364h-307l-78 236h-524l-82 -236h-297zM289 1642q0 57 39.5 96t99 39t99.5 -39t40 -96t-40 -97t-99.5 -40t-99 40t-39.5 97zM453 465h381l-191 565zM725 1642q0 57 40 96t99 39t99 -39t40 -96t-40 -97t-99 -40t-99 40t-40 97z" />
<glyph unicode="&#xc5;" horiz-adv-x="1294" d="M2 0l471 1364h352l465 -1364h-307l-78 236h-524l-82 -236h-297zM453 465h381l-191 565zM457 1688q0 78 54 132t136 54q80 0 134 -54t54 -132t-54 -132t-134 -54q-82 0 -136 54t-54 132zM553 1688q0 -39 27.5 -65.5t66.5 -26.5t66.5 26.5t27.5 65.5t-27.5 65.5t-66.5 26.5 t-66.5 -26.5t-27.5 -65.5z" />
<glyph unicode="&#xc6;" horiz-adv-x="1740" d="M-12 0l741 1364h920v-227h-467v-336h467v-232h-469v-342h469v-227h-748v272h-467l-147 -272h-299zM549 494h352v657z" />
<glyph unicode="&#xc7;" horiz-adv-x="1298" d="M76 678q0 311 190.5 512t487.5 201q184 0 331 -76q86 -45 185 -139l-183 -187q-158 143 -321 144q-180 0 -294 -126t-114 -323t120 -325t302 -128q184 1 307 142l168 -195q-106 -98 -190 -137q-143 -66 -315 -66q-297 0 -485.5 197t-188.5 506zM449 -338q94 47 137 94 t63 123l248 -72q-49 -76 -115 -126q-80 -66 -211 -113z" />
<glyph unicode="&#xc8;" horiz-adv-x="948" d="M96 0v1364h758v-229h-479v-336h479v-228h-477v-342h477v-229h-758zM174 1780h262l170 -284h-160z" />
<glyph unicode="&#xc9;" horiz-adv-x="948" d="M96 0v1364h758v-229h-479v-336h479v-228h-477v-342h477v-229h-758zM366 1496l170 284h262l-272 -284h-160z" />
<glyph unicode="&#xca;" horiz-adv-x="948" d="M96 0v1364h758v-229h-479v-336h479v-228h-477v-342h477v-229h-758zM153 1498l209 284h240l197 -284h-181l-141 151l-143 -151h-181z" />
<glyph unicode="&#xcb;" horiz-adv-x="948" d="M96 0v1364h758v-229h-479v-336h479v-228h-477v-342h477v-229h-758zM121 1642q0 57 39.5 96t99 39t99.5 -39t40 -96t-40 -97t-99.5 -40t-99 40t-39.5 97zM557 1642q0 57 40 96t99 39t99 -39t40 -96t-40 -97t-99 -40t-99 40t-40 97z" />
<glyph unicode="&#xcc;" horiz-adv-x="565" d="M-28 1780h262l170 -284h-160zM143 0v1364h279v-1364h-279z" />
<glyph unicode="&#xcd;" horiz-adv-x="565" d="M143 0v1364h279v-1364h-279zM162 1496l170 284h262l-272 -284h-160z" />
<glyph unicode="&#xce;" horiz-adv-x="565" d="M-45 1496l209 284h240l197 -284h-181l-141 151l-143 -151h-181zM143 0v1364h279v-1364h-279z" />
<glyph unicode="&#xcf;" horiz-adv-x="565" d="M-71 1642q0 57 39.5 96t99 39t99.5 -39t40 -96t-40 -97t-99.5 -40t-99 40t-39.5 97zM143 0v1364h279v-1364h-279zM365 1642q0 57 40 96t99 39t99 -39t40 -96t-40 -97t-99 -40t-99 40t-40 97z" />
<glyph unicode="&#xd1;" horiz-adv-x="1413" d="M143 0v1364h275l571 -852v852h281v-1364h-273l-575 862v-862h-279zM395 1519q55 225 215 226q63 0 162 -50l23 -10q29 -14 47 -14q43 0 59 72l166 -13q-53 -229 -211 -229q-57 0 -184 59q-31 16 -47 17q-41 0 -62 -72z" />
<glyph unicode="&#xd2;" horiz-adv-x="1562" d="M76 676q0 303 205.5 509t504.5 206t500 -202t201 -501q0 -303 -202 -508t-499 -205q-299 0 -504.5 203t-205.5 498zM360 680q0 -190 121 -319.5t299 -129.5q180 0 301 128t121 323q0 193 -120.5 320.5t-301.5 127.5q-178 0 -299 -129t-121 -321zM516 1806h262l170 -284 h-160z" />
<glyph unicode="&#xd3;" horiz-adv-x="1562" d="M76 676q0 303 205.5 509t504.5 206t500 -202t201 -501q0 -303 -202 -508t-499 -205q-299 0 -504.5 203t-205.5 498zM360 680q0 -190 121 -319.5t299 -129.5q180 0 301 128t121 323q0 193 -120.5 320.5t-301.5 127.5q-178 0 -299 -129t-121 -321zM649 1522l170 284h262 l-272 -284h-160z" />
<glyph unicode="&#xd4;" horiz-adv-x="1562" d="M76 676q0 303 205.5 509t504.5 206t500 -202t201 -501q0 -303 -202 -508t-499 -205q-299 0 -504.5 203t-205.5 498zM360 680q0 -190 121 -319.5t299 -129.5q180 0 301 128t121 323q0 193 -120.5 320.5t-301.5 127.5q-178 0 -299 -129t-121 -321zM458 1524l209 284h240 l197 -284h-181l-141 151l-143 -151h-181z" />
<glyph unicode="&#xd5;" horiz-adv-x="1562" d="M76 676q0 303 205.5 509t504.5 206t500 -202t201 -501q0 -303 -202 -508t-499 -205q-299 0 -504.5 203t-205.5 498zM360 680q0 -190 121 -319.5t299 -129.5q180 0 301 128t121 323q0 193 -120.5 320.5t-301.5 127.5q-178 0 -299 -129t-121 -321zM460 1546q55 225 215 226 q63 0 162 -50l23 -10q29 -14 47 -14q43 0 59 72l166 -13q-53 -229 -211 -229q-57 0 -184 59q-31 16 -47 17q-41 0 -62 -72z" />
<glyph unicode="&#xd6;" horiz-adv-x="1562" d="M76 676q0 303 205.5 509t504.5 206t500 -202t201 -501q0 -303 -202 -508t-499 -205q-299 0 -504.5 203t-205.5 498zM360 680q0 -190 121 -319.5t299 -129.5q180 0 301 128t121 323q0 193 -120.5 320.5t-301.5 127.5q-178 0 -299 -129t-121 -321zM424 1669q0 57 39.5 96 t99 39t99.5 -39t40 -96t-40 -97t-99.5 -40t-99 40t-39.5 97zM860 1669q0 57 40 96t99 39t99 -39t40 -96t-40 -97t-99 -40t-99 40t-40 97z" />
<glyph unicode="&#xd8;" horiz-adv-x="1558" d="M74 670q0 309 199.5 515t500.5 206q168 0 313 -72q90 -41 164 -111l148 146l69 -78l-145 -139q61 -88 88 -141.5t47 -129.5q25 -92 25 -184q0 -299 -207 -503t-512 -204q-160 0 -305 70q-84 43 -156 109l-145 -142l-70 74l145 141q-102 127 -135 250q-25 88 -24 193z M358 680q0 -156 76 -264l617 608q-121 109 -269 109q-180 0 -302 -130.5t-122 -322.5zM500 336q119 -104 270 -105q182 0 305 129t123 322q0 147 -78 262z" />
<glyph unicode="&#xd9;" horiz-adv-x="1306" d="M119 575v789h280v-799q0 -174 62 -250q70 -84 192 -84q131 0 199 95q53 74 53 239v799h281v-789q0 -297 -135 -444q-143 -156 -396 -156q-264 0 -413 168q-66 76 -94.5 174.5t-28.5 257.5zM334 1780h262l170 -284h-160z" />
<glyph unicode="&#xda;" horiz-adv-x="1306" d="M119 575v789h280v-799q0 -174 62 -250q70 -84 192 -84q131 0 199 95q53 74 53 239v799h281v-789q0 -297 -135 -444q-143 -156 -396 -156q-264 0 -413 168q-66 76 -94.5 174.5t-28.5 257.5zM512 1496l170 284h262l-272 -284h-160z" />
<glyph unicode="&#xdb;" horiz-adv-x="1306" d="M119 575v789h280v-799q0 -174 62 -250q70 -84 192 -84q131 0 199 95q53 74 53 239v799h281v-789q0 -297 -135 -444q-143 -156 -396 -156q-264 0 -413 168q-66 76 -94.5 174.5t-28.5 257.5zM319 1498l209 284h240l197 -284h-181l-141 151l-143 -151h-181z" />
<glyph unicode="&#xdc;" horiz-adv-x="1306" d="M119 575v789h280v-799q0 -174 62 -250q70 -84 192 -84q131 0 199 95q53 74 53 239v799h281v-789q0 -297 -135 -444q-143 -156 -396 -156q-264 0 -413 168q-66 76 -94.5 174.5t-28.5 257.5zM297 1642q0 57 39.5 96t99 39t99.5 -39t40 -96t-40 -97t-99.5 -40t-99 40 t-39.5 97zM733 1642q0 57 40 96t99 39t99 -39t40 -96t-40 -97t-99 -40t-99 40t-40 97z" />
<glyph unicode="&#xdf;" horiz-adv-x="1087" d="M53 727v219h92v107q0 147 107.5 238t282.5 91q180 0 290.5 -89t110.5 -234q0 -186 -172 -262q123 -37 190.5 -135.5t67.5 -241.5q0 -199 -101.5 -317.5t-271.5 -118.5q-88 0 -172 34l45 213q39 -10 68 -10q80 0 128 57.5t48 151.5q0 100 -55.5 152.5t-169.5 62.5v238 q139 12 139 135q0 59 -39 98t-96 39q-139 0 -139 -178v-977h-261v727h-92z" />
<glyph unicode="&#xe0;" horiz-adv-x="1243" d="M66 463q0 223 135 369.5t342 146.5q182 0 309 -154v121h262v-946h-260v129q-127 -160 -332 -160q-201 0 -328.5 138.5t-127.5 355.5zM224 1401h262l170 -284h-160zM342 467q0 -125 71.5 -208t180.5 -83q106 0 182 83t80 206v14q0 123 -73.5 202t-188.5 79 q-109 0 -180.5 -83t-71.5 -210z" />
<glyph unicode="&#xe1;" horiz-adv-x="1243" d="M66 463q0 223 135 369.5t342 146.5q182 0 309 -154v121h262v-946h-260v129q-127 -160 -332 -160q-201 0 -328.5 138.5t-127.5 355.5zM342 467q0 -125 71.5 -208t180.5 -83q106 0 182 83t80 206v14q0 123 -73.5 202t-188.5 79q-109 0 -180.5 -83t-71.5 -210zM475 1117 l170 284h262l-272 -284h-160z" />
<glyph unicode="&#xe2;" horiz-adv-x="1243" d="M66 463q0 223 135 369.5t342 146.5q182 0 309 -154v121h262v-946h-260v129q-127 -160 -332 -160q-201 0 -328.5 138.5t-127.5 355.5zM264 1117l209 284h240l197 -284h-181l-141 151l-143 -151h-181zM342 467q0 -125 71.5 -208t180.5 -83q106 0 182 83t80 206v14 q0 123 -73.5 202t-188.5 79q-109 0 -180.5 -83t-71.5 -210z" />
<glyph unicode="&#xe3;" horiz-adv-x="1243" d="M66 463q0 223 135 369.5t342 146.5q182 0 309 -154v121h262v-946h-260v129q-127 -160 -332 -160q-201 0 -328.5 138.5t-127.5 355.5zM260 1134q55 225 215 226q63 0 162 -50l23 -10q29 -14 47 -14q43 0 59 72l166 -13q-53 -229 -211 -229q-57 0 -184 59q-31 16 -47 17 q-41 0 -62 -72zM342 467q0 -125 71.5 -208t180.5 -83q106 0 182 83t80 206v14q0 123 -73.5 202t-188.5 79q-109 0 -180.5 -83t-71.5 -210z" />
<glyph unicode="&#xe4;" horiz-adv-x="1243" d="M66 463q0 223 135 369.5t342 146.5q182 0 309 -154v121h262v-946h-260v129q-127 -160 -332 -160q-201 0 -328.5 138.5t-127.5 355.5zM295 1253q0 57 39.5 96t99 39t99.5 -39t40 -96t-40 -97t-99.5 -40t-99 40t-39.5 97zM342 467q0 -125 71.5 -208t180.5 -83q106 0 182 83 t80 206v14q0 123 -73.5 202t-188.5 79q-109 0 -180.5 -83t-71.5 -210zM731 1253q0 57 40 96t99 39t99 -39t40 -96t-40 -97t-99 -40t-99 40t-40 97z" />
<glyph unicode="&#xe5;" horiz-adv-x="1243" d="M66 463q0 223 135 369.5t342 146.5q182 0 309 -154v121h262v-946h-260v129q-127 -160 -332 -160q-201 0 -328.5 138.5t-127.5 355.5zM342 467q0 -125 71.5 -208t180.5 -83q106 0 182 83t80 206v14q0 123 -73.5 202t-188.5 79q-109 0 -180.5 -83t-71.5 -210zM416 1302 q0 78 54 132t136 54q80 0 134 -54t54 -132t-54 -132t-134 -54q-82 0 -136 54t-54 132zM512 1302q0 -39 27.5 -65.5t66.5 -26.5t66.5 26.5t27.5 65.5t-27.5 65.5t-66.5 26.5t-66.5 -26.5t-27.5 -65.5z" />
<glyph unicode="&#xe6;" horiz-adv-x="1935" d="M66 465q0 223 133 368.5t336 145.5q207 0 339 -141v108h250v-108q59 78 125 109.5t160 31.5q199 0 333 -146.5t134 -363.5q0 -35 -2 -61h-750q20 -98 89 -153.5t171 -55.5q134 0 222 125l235 -74q-35 -66 -60.5 -99.5t-70.5 -72.5q-129 -109 -297 -109q-100 0 -165.5 32 t-123.5 110v-111h-247v115q-123 -147 -332 -148q-215 0 -347 137.5t-132 360.5zM342 469q0 -121 79 -207t191 -86q111 0 184.5 81t73.5 206q0 131 -74.5 214t-189.5 83q-113 0 -188.5 -83t-75.5 -208zM1124 557h484q-41 203 -236 203q-188 0 -248 -203z" />
<glyph unicode="&#xe7;" horiz-adv-x="958" d="M66 469q0 223 141 366.5t362 143.5q203 0 379 -156l-174 -159q-84 84 -196 84q-106 0 -178 -78t-72 -195q0 -119 73.5 -197.5t186.5 -78.5q94 -1 186 77l158 -167q-154 -139 -365 -140q-217 0 -359 141.5t-142 358.5zM319 -332q74 39 115 84t82 129l178 -76 q-55 -84 -111.5 -131t-156.5 -98z" />
<glyph unicode="&#xe8;" horiz-adv-x="1136" d="M66 475q0 223 139 363.5t360 140.5q227 0 370.5 -145.5t143.5 -374.5q0 -4 -1 -19.5t-1 -27.5h-739q14 -98 81.5 -155.5t164.5 -57.5q72 0 130 32.5t89 90.5l239 -66q-35 -70 -62.5 -104.5t-80.5 -75.5q-141 -109 -317 -109q-225 0 -370.5 142.5t-145.5 365.5zM242 1401 h262l170 -284h-160zM336 561h475q-16 92 -80.5 145.5t-161.5 53.5q-94 0 -154.5 -51.5t-78.5 -147.5z" />
<glyph unicode="&#xe9;" horiz-adv-x="1136" d="M66 475q0 223 139 363.5t360 140.5q227 0 370.5 -145.5t143.5 -374.5q0 -4 -1 -19.5t-1 -27.5h-739q14 -98 81.5 -155.5t164.5 -57.5q72 0 130 32.5t89 90.5l239 -66q-35 -70 -62.5 -104.5t-80.5 -75.5q-141 -109 -317 -109q-225 0 -370.5 142.5t-145.5 365.5zM336 561 h475q-16 92 -80.5 145.5t-161.5 53.5q-94 0 -154.5 -51.5t-78.5 -147.5zM450 1117l170 284h262l-272 -284h-160z" />
<glyph unicode="&#xea;" horiz-adv-x="1136" d="M66 475q0 223 139 363.5t360 140.5q227 0 370.5 -145.5t143.5 -374.5q0 -4 -1 -19.5t-1 -27.5h-739q14 -98 81.5 -155.5t164.5 -57.5q72 0 130 32.5t89 90.5l239 -66q-35 -70 -62.5 -104.5t-80.5 -75.5q-141 -109 -317 -109q-225 0 -370.5 142.5t-145.5 365.5zM251 1117 l209 284h240l197 -284h-181l-141 151l-143 -151h-181zM336 561h475q-16 92 -80.5 145.5t-161.5 53.5q-94 0 -154.5 -51.5t-78.5 -147.5z" />
<glyph unicode="&#xeb;" horiz-adv-x="1136" d="M66 475q0 223 139 363.5t360 140.5q227 0 370.5 -145.5t143.5 -374.5q0 -4 -1 -19.5t-1 -27.5h-739q14 -98 81.5 -155.5t164.5 -57.5q72 0 130 32.5t89 90.5l239 -66q-35 -70 -62.5 -104.5t-80.5 -75.5q-141 -109 -317 -109q-225 0 -370.5 142.5t-145.5 365.5zM207 1253 q0 57 39.5 96t99 39t99.5 -39t40 -96t-40 -97t-99.5 -40t-99 40t-39.5 97zM336 561h475q-16 92 -80.5 145.5t-161.5 53.5q-94 0 -154.5 -51.5t-78.5 -147.5zM643 1253q0 57 40 96t99 39t99 -39t40 -96t-40 -97t-99 -40t-99 40t-40 97z" />
<glyph unicode="&#xec;" horiz-adv-x="518" d="M-53 1368h262l170 -284h-160zM129 0v946h260v-946h-260z" />
<glyph unicode="&#xed;" horiz-adv-x="518" d="M129 0v946h260v-946h-260zM139 1084l170 284h262l-272 -284h-160z" />
<glyph unicode="&#xee;" horiz-adv-x="518" d="M-54 1084l209 284h240l197 -284h-181l-141 151l-143 -151h-181zM129 0v946h260v-946h-260z" />
<glyph unicode="&#xef;" horiz-adv-x="518" d="M-98 1221q0 57 39.5 96t99 39t99.5 -39t40 -96t-40 -97t-99.5 -40t-99 40t-39.5 97zM129 0v946h260v-946h-260zM338 1221q0 57 40 96t99 39t99 -39t40 -96t-40 -97t-99 -40t-99 40t-40 97z" />
<glyph unicode="&#xf1;" horiz-adv-x="1087" d="M129 0v946h260v-115q51 80 109.5 114t146.5 34q145 0 234 -88q49 -49 66.5 -111.5t17.5 -181.5v-598h-261v586q0 174 -147 174q-74 0 -120 -51.5t-46 -133.5v-575h-260zM186 1134q55 225 215 226q63 0 162 -50l23 -10q29 -14 47 -14q43 0 59 72l166 -13 q-53 -229 -211 -229q-57 0 -184 59q-31 16 -47 17q-41 0 -62 -72z" />
<glyph unicode="&#xf2;" horiz-adv-x="1163" d="M66 471q0 225 143 366.5t371 141.5q223 0 369.5 -143.5t146.5 -362.5q0 -217 -147.5 -360.5t-368.5 -143.5q-225 0 -369.5 140.5t-144.5 361.5zM248 1401h262l170 -284h-160zM328 471q0 -121 70.5 -196.5t183 -75.5t182.5 75.5t70 200.5q0 123 -69 196.5t-183.5 73.5 t-184 -74.5t-69.5 -199.5z" />
<glyph unicode="&#xf3;" horiz-adv-x="1163" d="M66 471q0 225 143 366.5t371 141.5q223 0 369.5 -143.5t146.5 -362.5q0 -217 -147.5 -360.5t-368.5 -143.5q-225 0 -369.5 140.5t-144.5 361.5zM328 471q0 -121 70.5 -196.5t183 -75.5t182.5 75.5t70 200.5q0 123 -69 196.5t-183.5 73.5t-184 -74.5t-69.5 -199.5z M454 1117l170 284h262l-272 -284h-160z" />
<glyph unicode="&#xf4;" horiz-adv-x="1163" d="M66 471q0 225 143 366.5t371 141.5q223 0 369.5 -143.5t146.5 -362.5q0 -217 -147.5 -360.5t-368.5 -143.5q-225 0 -369.5 140.5t-144.5 361.5zM260 1117l209 284h240l197 -284h-181l-141 151l-143 -151h-181zM328 471q0 -121 70.5 -196.5t183 -75.5t182.5 75.5t70 200.5 q0 123 -69 196.5t-183.5 73.5t-184 -74.5t-69.5 -199.5z" />
<glyph unicode="&#xf5;" horiz-adv-x="1163" d="M66 471q0 225 143 366.5t371 141.5q223 0 369.5 -143.5t146.5 -362.5q0 -217 -147.5 -360.5t-368.5 -143.5q-225 0 -369.5 140.5t-144.5 361.5zM251 1134q55 225 215 226q63 0 162 -50l23 -10q29 -14 47 -14q43 0 59 72l166 -13q-53 -229 -211 -229q-57 0 -184 59 q-31 16 -47 17q-41 0 -62 -72zM328 471q0 -121 70.5 -196.5t183 -75.5t182.5 75.5t70 200.5q0 123 -69 196.5t-183.5 73.5t-184 -74.5t-69.5 -199.5z" />
<glyph unicode="&#xf6;" horiz-adv-x="1163" d="M66 471q0 225 143 366.5t371 141.5q223 0 369.5 -143.5t146.5 -362.5q0 -217 -147.5 -360.5t-368.5 -143.5q-225 0 -369.5 140.5t-144.5 361.5zM224 1253q0 57 39.5 96t99 39t99.5 -39t40 -96t-40 -97t-99.5 -40t-99 40t-39.5 97zM328 471q0 -121 70.5 -196.5t183 -75.5 t182.5 75.5t70 200.5q0 123 -69 196.5t-183.5 73.5t-184 -74.5t-69.5 -199.5zM660 1253q0 57 40 96t99 39t99 -39t40 -96t-40 -97t-99 -40t-99 40t-40 97z" />
<glyph unicode="&#xf7;" d="M86 602v166h850v-166h-850zM391 352q0 49 35 84t86 35q47 -2 79 -37t32 -84q0 -47 -33 -79.5t-80 -32.5q-49 0 -84 33.5t-35 80.5zM391 1012q0 49 35 83.5t86 34.5q45 -2 78 -36.5t33 -81.5q0 -45 -33 -78t-80 -33q-49 0 -84 33t-35 78z" />
<glyph unicode="&#xf8;" horiz-adv-x="1163" d="M66 471q0 221 143 364.5t366 143.5q193 0 343 -113l112 109l62 -66l-109 -108q115 -156 115 -332q0 -215 -148.5 -357.5t-369.5 -142.5q-195 0 -338 111l-109 -100l-65 65l106 102q-109 137 -108 324zM319 467q0 -78 37 -145l383 374q-72 49 -157 49q-119 0 -191 -76.5 t-72 -201.5zM420 252q78 -53 164 -53q113 0 185.5 75.5t72.5 196.5q0 88 -41 160z" />
<glyph unicode="&#xf9;" horiz-adv-x="1052" d="M111 346v600h260v-581q0 -80 43 -129.5t114.5 -49.5t111.5 42t40 120v598h262v-598q0 -104 -24.5 -169.5t-81.5 -115.5q-115 -94 -310 -94q-203 0 -309 96.5t-106 280.5zM195 1368h262l170 -284h-160z" />
<glyph unicode="&#xfa;" horiz-adv-x="1052" d="M111 346v600h260v-581q0 -80 43 -129.5t114.5 -49.5t111.5 42t40 120v598h262v-598q0 -104 -24.5 -169.5t-81.5 -115.5q-115 -94 -310 -94q-203 0 -309 96.5t-106 280.5zM405 1084l170 284h262l-272 -284h-160z" />
<glyph unicode="&#xfb;" horiz-adv-x="1052" d="M111 346v600h260v-581q0 -80 43 -129.5t114.5 -49.5t111.5 42t40 120v598h262v-598q0 -104 -24.5 -169.5t-81.5 -115.5q-115 -94 -310 -94q-203 0 -309 96.5t-106 280.5zM200 1084l209 284h240l197 -284h-181l-141 151l-143 -151h-181z" />
<glyph unicode="&#xfc;" horiz-adv-x="1052" d="M111 346v600h260v-581q0 -80 43 -129.5t114.5 -49.5t111.5 42t40 120v598h262v-598q0 -104 -24.5 -169.5t-81.5 -115.5q-115 -94 -310 -94q-203 0 -309 96.5t-106 280.5zM168 1221q0 57 39.5 96t99 39t99.5 -39t40 -96t-40 -97t-99.5 -40t-99 40t-39.5 97zM604 1221 q0 57 40 96t99 39t99 -39t40 -96t-40 -97t-99 -40t-99 40t-40 97z" />
<glyph unicode="&#xff;" horiz-adv-x="958" d="M-2 946h276l191 -563l221 563h277l-535 -1378h-278l178 452zM115 1221q0 57 39.5 96t99 39t99.5 -39t40 -96t-40 -97t-99.5 -40t-99 40t-39.5 97zM551 1221q0 57 40 96t99 39t99 -39t40 -96t-40 -97t-99 -40t-99 40t-40 97z" />
<glyph unicode="&#x152;" horiz-adv-x="2052" d="M80 686q0 303 197.5 504t496.5 201q150 0 279 -60q88 -43 164 -119v152h741v-227h-467v-336h467v-232h-467v-342h467v-227h-741v160q-45 -51 -74 -74t-82 -47q-137 -66 -293 -66q-295 0 -491.5 204t-196.5 509zM365 680q0 -193 120.5 -321t302.5 -128q188 0 312.5 131 t124.5 330q0 190 -121 315.5t-305 125.5q-186 0 -310 -129.5t-124 -323.5z" />
<glyph unicode="&#x153;" horiz-adv-x="1857" d="M66 473q0 223 142 364.5t365 141.5q143 0 258 -64q66 -35 119 -106q61 74 135 111q119 59 244 59q154 0 274.5 -76t174.5 -207q29 -72 38 -127t11 -163h-735q8 -94 75.5 -150.5t169.5 -56.5q158 -1 244 120l213 -71q-33 -63 -58.5 -96t-72.5 -72q-141 -111 -324 -111 q-147 0 -272 68q-61 35 -117 106q-35 -45 -57.5 -64.5t-77.5 -47.5q-115 -61 -244 -62q-223 0 -364 141.5t-141 362.5zM328 479q0 -119 73.5 -199.5t182.5 -80.5q106 0 178 75.5t72 190.5q0 121 -73 202t-181 81q-106 0 -179 -77t-73 -192zM1083 555h490q-39 205 -246 205 q-199 0 -244 -205z" />
<glyph unicode="&#x178;" horiz-adv-x="1140" d="M-20 1364h331l264 -473l259 473h329l-450 -764v-600h-279v600zM205 1642q0 57 39.5 96t99 39t99.5 -39t40 -96t-40 -97t-99.5 -40t-99 40t-39.5 97zM641 1642q0 57 40 96t99 39t99 -39t40 -96t-40 -97t-99 -40t-99 40t-40 97z" />
<glyph unicode="&#x2c6;" d="M188 1090l209 284h240l197 -284h-181l-141 151l-143 -151h-181z" />
<glyph unicode="&#x2dc;" d="M188 1122q55 225 215 226q63 0 162 -50l23 -10q29 -14 47 -14q43 0 59 72l166 -13q-53 -229 -211 -229q-57 0 -184 59q-31 16 -47 17q-41 0 -62 -72z" />
<glyph unicode="&#x2000;" horiz-adv-x="937" />
<glyph unicode="&#x2001;" horiz-adv-x="1874" />
<glyph unicode="&#x2002;" horiz-adv-x="937" />
<glyph unicode="&#x2003;" horiz-adv-x="1874" />
<glyph unicode="&#x2004;" horiz-adv-x="624" />
<glyph unicode="&#x2005;" horiz-adv-x="468" />
<glyph unicode="&#x2006;" horiz-adv-x="312" />
<glyph unicode="&#x2007;" horiz-adv-x="312" />
<glyph unicode="&#x2008;" horiz-adv-x="234" />
<glyph unicode="&#x2009;" horiz-adv-x="374" />
<glyph unicode="&#x200a;" horiz-adv-x="104" />
<glyph unicode="&#x2010;" horiz-adv-x="452" d="M0 383v229h453v-229h-453z" />
<glyph unicode="&#x2011;" horiz-adv-x="452" d="M0 383v229h453v-229h-453z" />
<glyph unicode="&#x2012;" horiz-adv-x="452" d="M0 383v229h453v-229h-453z" />
<glyph unicode="&#x2013;" d="M86 602v166h850v-166h-850z" />
<glyph unicode="&#x2014;" horiz-adv-x="1368" d="M0 401v197h1368v-197h-1368z" />
<glyph unicode="&#x2018;" horiz-adv-x="483" d="M68 965l161 428l177 -47l-115 -441z" />
<glyph unicode="&#x2019;" horiz-adv-x="483" d="M76 952l114 441l224 -62l-162 -426z" />
<glyph unicode="&#x201c;" horiz-adv-x="888" d="M68 920l174 473l182 -50l-123 -487zM457 920l174 473l182 -50l-123 -487z" />
<glyph unicode="&#x201d;" horiz-adv-x="888" d="M74 903l123 488l233 -62l-174 -473zM463 903l123 490l233 -64l-174 -473z" />
<glyph unicode="&#x201e;" horiz-adv-x="888" d="M74 -209l123 488l233 -64l-174 -471zM463 -209l123 488l233 -64l-174 -471z" />
<glyph unicode="&#x2022;" horiz-adv-x="851" d="M225 690q0 84 59.5 142.5t141.5 58.5t140.5 -58.5t58.5 -142.5t-58.5 -142.5t-140.5 -58.5t-141.5 58.5t-59.5 142.5z" />
<glyph unicode="&#x2026;" horiz-adv-x="1599" d="M115 123q0 66 43 108.5t108.5 42.5t108.5 -42.5t43 -108.5q0 -63 -43 -105.5t-108.5 -42.5t-108.5 42t-43 106zM649 123q0 66 42 108.5t107.5 42.5t108.5 -42.5t43 -108.5q0 -63 -43 -105.5t-108.5 -42.5t-107.5 42t-42 106zM1182 123q0 66 43 108.5t108.5 42.5 t108.5 -42.5t43 -108.5q0 -63 -43 -105.5t-108.5 -42.5t-108.5 42t-43 106z" />
<glyph unicode="&#x202f;" horiz-adv-x="374" />
<glyph unicode="&#x2039;" horiz-adv-x="526" d="M74 487l194 344h170l-196 -344l196 -333h-168z" />
<glyph unicode="&#x203a;" horiz-adv-x="526" d="M88 154l197 344l-197 333h168l197 -333l-197 -344h-168z" />
<glyph unicode="&#x205f;" horiz-adv-x="468" />
<glyph unicode="&#x2122;" horiz-adv-x="1722" d="M14 1221v143h586v-143h-201v-635h-186v635h-199zM684 588v778h207l246 -457l243 455h209v-778h-186v454l-266 -485l-267 485v-452h-186z" />
<glyph unicode="&#xe000;" horiz-adv-x="942" d="M0 0v942h942v-942h-942z" />
<glyph unicode="&#xfb01;" horiz-adv-x="1112" d="M43 727v219h104v53q0 365 345 365h38v-240q-68 -10 -95 -37.5t-27 -87.5v-51h122v-221h-122v-727h-261v727h-104zM707 1218.5q0 63.5 40.5 103.5t102.5 40q63 0 104 -41t41 -102q0 -63 -41 -104.5t-104 -41.5q-61 0 -102 41t-41 104.5zM721 0v946h260v-946h-260z" />
<glyph unicode="&#xfb02;" horiz-adv-x="1112" d="M43 727v219h104v53q0 365 345 365h38v-240q-68 -10 -95 -37.5t-27 -87.5v-51h122v-221h-122v-727h-261v727h-104zM721 0v1364h260v-1364h-260z" />
</font>
</defs>
</svg>
