<?xml version="1.0" standalone="no"?>
<!DOCTYPE svg PUBLIC "-//W3C//DTD SVG 1.1//EN" "http://www.w3.org/Graphics/SVG/1.1/DTD/svg11.dtd" >
<svg xmlns="http://www.w3.org/2000/svg">
<metadata></metadata>
<defs>
<font id="neuzeitblk" horiz-adv-x="1024" >
<font-face units-per-em="2048" ascent="1638" descent="-410" />
<missing-glyph horiz-adv-x="589" />
<glyph horiz-adv-x="2048" />
<glyph horiz-adv-x="2048" />
<glyph unicode="&#xd;" horiz-adv-x="681" />
<glyph unicode=" "  horiz-adv-x="589" />
<glyph unicode="&#x09;" horiz-adv-x="589" />
<glyph unicode="&#xa0;" horiz-adv-x="589" />
<glyph unicode="!" horiz-adv-x="616" d="M135 139q0 76 49 125t123 49q76 0 125 -49t49 -125q-2 -76 -50 -123t-124 -47t-124 48.5t-48 121.5zM158 471v893h301v-893h-301z" />
<glyph unicode="&#x22;" horiz-adv-x="993" d="M207 1364h246l-52 -569h-143zM539 1364h247l-51 -569h-143z" />
<glyph unicode="#" d="M51 606h211l29 176h-185l-2 156h207l56 373h153l-53 -373h178l55 373h158l-55 -373h168v-156h-191l-24 -176h166l2 -155h-191l-61 -398h-156l57 398h-178l-59 -398h-154l58 398h-187zM418 606h178l29 176h-181z" />
<glyph unicode="$" horiz-adv-x="1091" d="M94 963q0 170 110.5 283.5t282.5 119.5v143h103v-143q139 -25 217 -70t123 -127q39 -70 45 -170h-270q-9 97 -115 113v-299q137 -47 233 -102q172 -102 172 -303q0 -111 -58 -211.5t-153 -145.5q-63 -33 -194 -51v-174h-103v174q-213 12 -323 174q-33 51 -46.5 94 t-17.5 121h279q0 -59 24.5 -90t83.5 -47v297q-213 70 -303 165t-90 249zM369 981q0 -49 24.5 -78t93.5 -57v266q-119 -16 -118 -131zM590 252q117 23 117 137q0 49 -26 76t-91 45v-258z" />
<glyph unicode="%" horiz-adv-x="1456" d="M74 942v162q0 150 61 211q74 78 207 78q131 0 202.5 -72t71.5 -203v-215q0 -131 -68.5 -200.5t-199.5 -69.5q-137 0 -207 69q-39 37 -53 89.5t-14 150.5zM242 29l882 1364l90 -56l-884 -1364zM264 922q0 -72 16.5 -96.5t65.5 -24.5t66.5 26.5t17.5 100.5v176 q0 68 -17.5 93.5t-62.5 25.5q-51 0 -68.5 -24.5t-17.5 -94.5v-182zM840 281v159q0 154 59 213q76 76 207 76t203.5 -71.5t72.5 -202.5v-215q0 -131 -68.5 -199t-199.5 -68q-141 0 -209 68q-37 35 -51 88t-14 152zM1030 258q0 -72 16.5 -95.5t63.5 -23.5q49 0 66.5 27 t17.5 100v174q0 70 -16.5 94.5t-63.5 24.5q-51 0 -67.5 -23.5t-16.5 -95.5v-182z" />
<glyph unicode="&#x26;" horiz-adv-x="1345" d="M68 354q0 131 61 221.5t221 196.5q-61 88 -84.5 149.5t-23.5 131.5q0 137 103.5 224t265 87t265 -87t103.5 -222q0 -109 -78 -213q-47 -61 -149 -129l157 -205q113 96 205 205l203 -183q-121 -137 -234 -239l234 -291h-361l-88 106q-209 -145 -387 -145 q-184 0 -298.5 108.5t-114.5 284.5zM373 381q0 -59 43 -101t102 -42q96 0 170 86l-184 229q-131 -80 -131 -172zM532 1049q1 -59 62 -131q104 66 104 131q0 37 -22.5 60.5t-54.5 23.5q-35 0 -62 -26t-27 -58z" />
<glyph unicode="'" horiz-adv-x="495" d="M125 1364h246l-52 -569h-143z" />
<glyph unicode="(" horiz-adv-x="694" d="M68 483q0 303 129 613q55 125 94 188.5t125 155.5l196 -183q-94 -127 -153 -262q-115 -264 -115 -530q0 -250 107 -483q59 -134 161 -269l-213 -176q-78 106 -115.5 170t-82.5 166q-133 301 -133 610z" />
<glyph unicode=")" horiz-adv-x="694" d="M82 -283q94 133 154 265q113 262 112 528q0 244 -104 483q-62 136 -162 271l213 176q129 -178 199 -336q131 -301 131 -612q0 -315 -129 -613q-51 -121 -91 -184.5t-126 -157.5z" />
<glyph unicode="*" horiz-adv-x="839" d="M109 1077l59 158l162 -49v178h168v-176l172 65l59 -155l-190 -74l131 -150l-131 -100l-125 150l-101 -150l-145 100l106 150z" />
<glyph unicode="+" d="M76 594v190h340v346h190v-346h342v-190h-340l-2 -346h-190v346h-340z" />
<glyph unicode="," horiz-adv-x="563" d="M84 -199l92 512l287 -65l-170 -490z" />
<glyph unicode="-" horiz-adv-x="466" d="M0 365v270h467v-270h-467z" />
<glyph unicode="." horiz-adv-x="563" d="M109 139q0 76 48 125t123.5 49t124 -49t48.5 -125t-48.5 -123t-124 -47t-123.5 48.5t-48 121.5z" />
<glyph unicode="/" horiz-adv-x="800" d="M-117 -416l674 1780h203l-674 -1780h-203z" />
<glyph unicode="0" d="M74 483v430q0 254 96 353q121 127 334 127q193 0 315 -107q70 -63 99.5 -143t29.5 -205v-522q0 -217 -109.5 -331t-322.5 -114q-223 0 -336 113q-59 59 -82.5 147t-23.5 252zM385 444q0 -106 27.5 -147t99.5 -41t101.5 45t29.5 158v454q0 104 -28.5 146.5t-100.5 42.5 t-100.5 -41.5t-28.5 -147.5v-469z" />
<glyph unicode="1" horiz-adv-x="845" d="M145 868v285l535 250v-1403h-313v967z" />
<glyph unicode="2" d="M41 0l477 750q104 164 105 233q0 57 -35 93t-94 36q-80 0 -114 -49t-38 -166h-283v33q0 207 125 335t326 128q186 0 306 -105.5t120 -271.5q0 -96 -38 -192.5t-136 -245.5l-203 -310h342v-268h-860z" />
<glyph unicode="3" d="M47 401h279q8 -74 48 -113.5t105 -39.5q72 0 119 49t47 123q0 78 -46 128t-120 50q-59 0 -106 -31l-187 156l271 381h-353v260h859l-367 -510q162 -23 254 -132.5t92 -281.5q0 -205 -129 -337t-328 -132q-121 0 -222 52.5t-152 142.5q-33 57 -45.5 102t-18.5 133z" />
<glyph unicode="4" d="M70 266v260l413 838h363v-836h108v-262h-106v-266h-299v266h-479zM309 526h240v467z" />
<glyph unicode="5" d="M70 297l266 100q43 -133 158 -133q66 0 110.5 47t44.5 119q0 70 -46 120t-111 50q-84 0 -138 -78h-225v842h750v-277h-469v-260q86 35 157 35q164 0 274.5 -122t110.5 -302q0 -205 -126 -336t-320 -131q-199 0 -326 131q-57 63 -110 195z" />
<glyph unicode="6" d="M63 410q0 197 170 460l318 494h348l-348 -535q20 4 45 5q150 0 257.5 -118t107.5 -284q0 -193 -134.5 -327t-326.5 -134q-188 0 -312.5 125t-124.5 314zM352 414q0 -66 44 -110t112 -44q70 0 116 47t46 117q0 63 -44 108.5t-110 45.5q-70 0 -117 -47.5t-47 -116.5z" />
<glyph unicode="7" horiz-adv-x="886" d="M39 0l424 1085h-400v279h830l-537 -1364h-317z" />
<glyph unicode="8" d="M59 381q0 227 177 321q-139 84 -140 275q0 184 118 300t306 116q182 0 300 -114t118 -290q0 -201 -143 -287q168 -94 168 -305q0 -186 -128 -306t-329 -120q-199 0 -323 114t-124 296zM356 401q0 -66 43 -108.5t113 -42.5q66 0 110 45t44 108.5t-46.5 109.5t-109.5 46 q-66 0 -110 -45t-44 -113zM373 978.5q0 -63.5 42 -108.5t101 -45t105.5 46.5t46.5 105.5q0 61 -45 106t-106.5 45t-102.5 -43t-41 -106.5z" />
<glyph unicode="9" d="M61 938q0 193 132.5 324t326.5 131q190 0 315.5 -127t125.5 -322q0 -197 -170 -461l-312 -483h-344l344 530h-18q-172 0 -286 116t-114 292zM358 950.5q0 -65.5 44 -111.5t110 -46q68 0 113 45t45 110.5t-45 111.5t-111 46q-63 0 -109.5 -45t-46.5 -110.5z" />
<glyph unicode=":" horiz-adv-x="563" d="M109 139q0 76 48 125t123.5 49t124 -49t48.5 -125t-48.5 -123t-124 -47t-123.5 48.5t-48 121.5zM109 854q0 76 48 124t123.5 48t124 -48t48.5 -124t-48.5 -124t-124 -48t-123.5 48t-48 124z" />
<glyph unicode=";" horiz-adv-x="563" d="M84 -199l92 512l287 -65l-170 -490zM141 813q0 76 48.5 124t124 48t123.5 -48t48 -124t-48 -124t-123.5 -48t-124 48t-48.5 124z" />
<glyph unicode="&#x3c;" horiz-adv-x="1021" d="M14 571v217l994 431v-211l-742 -326l742 -285v-211z" />
<glyph unicode="=" d="M76 418v188h872v-188h-872zM76 754v188h872v-188h-872z" />
<glyph unicode="&#x3e;" horiz-adv-x="1021" d="M14 184v211l742 326l-742 285v213l994 -390v-215z" />
<glyph unicode="?" horiz-adv-x="935" d="M43 985q4 195 111.5 301.5t298.5 106.5q184 0 299.5 -104.5t115.5 -270.5q0 -98 -41 -171t-131 -140q-76 -55 -94 -80t-18 -72v-27v-32h-314q-2 37 -2 77q0 88 25.5 142.5t89.5 105.5l78 64q92 70 92 131q0 43 -29.5 70.5t-79.5 27.5q-111 0 -114 -129h-287zM256 139 q0 76 48 125t124 49t124 -49t48 -125t-48 -123t-124 -47t-124 48.5t-48 121.5z" />
<glyph unicode="@" horiz-adv-x="1570" d="M109 678q0 293 211.5 500.5t508.5 207.5q260 0 446.5 -171t186.5 -408q0 -207 -149.5 -371t-337.5 -164q-137 0 -144 111q-80 -61 -128 -84t-105 -23q-100 0 -160.5 69t-60.5 183q0 217 139 390.5t313 173.5q96 0 177 -80l18 43h184l-221 -576q-23 -53 -22 -80 q0 -39 53 -39t115 43q96 61 153 168t57 222q0 199 -151.5 338t-364.5 139q-246 0 -421 -176t-175 -424q0 -238 169 -407t405 -169q211 0 381 131q65 52 145 158h105q-63 -131 -118.5 -193.5t-162.5 -121.5q-156 -88 -348 -88q-289 0 -493.5 204.5t-204.5 493.5zM547 457 q0 -86 78 -86q57 0 115.5 61.5t101.5 167.5l100 244q10 25 10 55q0 96 -80 96q-102 0 -217 -204q-109 -197 -108 -334z" />
<glyph unicode="A" horiz-adv-x="1320" d="M0 0l451 1364h419l451 -1364h-363l-61 197h-483l-62 -197h-352zM496 465h317l-160 508z" />
<glyph unicode="B" horiz-adv-x="1191" d="M129 0v1364h467q182 0 277.5 -32t152.5 -109q70 -94 70 -226q0 -150 -92 -241q-50 -51 -144 -80q104 -23 164 -76q92 -86 92 -238q0 -96 -37 -176t-102 -123q-94 -63 -289 -63h-559zM461 238h121q104 0 151 36.5t47 118.5q0 94 -52 129t-191 35h-76v-319zM461 801h82 q113 0 165 38t52 119.5t-53.5 119.5t-167.5 38h-78v-315z" />
<glyph unicode="C" horiz-adv-x="1302" d="M68 678q0 315 194.5 515t501.5 200q176 0 321 -70q88 -41 195 -139l-211 -221q-140 122 -291 122h-2q-166 0 -269.5 -110.5t-103.5 -288.5t111 -292.5t283 -114.5h3q164 0 269 118l195 -231q-104 -88 -199 -131q-150 -61 -311 -62q-301 0 -493.5 198t-192.5 507z" />
<glyph unicode="D" horiz-adv-x="1327" d="M129 0v1364h399q176 0 294 -35t212 -115q223 -193 223 -518q0 -162 -58 -306t-159 -234q-178 -156 -475 -156h-436zM461 270h51q182 0 296 116t114 300q0 182 -112 297t-286 115h-63v-828z" />
<glyph unicode="E" horiz-adv-x="937" d="M70 0v1364h780v-268h-451v-279h451v-268h-449v-281h449v-268h-780z" />
<glyph unicode="F" horiz-adv-x="966" d="M131 0v1364h784v-268h-454v-279h454v-268h-452v-549h-332z" />
<glyph unicode="G" horiz-adv-x="1558" d="M68 680q0 303 204.5 508t507.5 205q170 0 320.5 -71t253.5 -200l-250 -196q-126 159 -311 159h-2q-166 0 -275.5 -116.5t-109.5 -292.5q0 -170 115.5 -287t283.5 -117q119 0 210 63.5t130 174.5h-334v268h698v-71q0 -336 -225 -541q-209 -193 -502 -193 q-305 0 -509.5 203t-204.5 504z" />
<glyph unicode="H" horiz-adv-x="1370" d="M129 0v1364h332v-557h448v557h332v-1364h-332v539h-448v-539h-332z" />
<glyph unicode="I" horiz-adv-x="589" d="M129 0v1364h332v-1364h-332z" />
<glyph unicode="J" horiz-adv-x="796" d="M68 -27v295q45 -4 47 -4q139 0 189 63.5t50 241.5v527h-286v268h618v-850q0 -172 -29.5 -263t-107.5 -157q-86 -70 -180 -94q-117 -25 -301 -27z" />
<glyph unicode="K" horiz-adv-x="1175" d="M129 0v1364h332v-576l319 576h381l-381 -649l381 -715h-381l-319 596v-596h-332z" />
<glyph unicode="L" horiz-adv-x="946" d="M129 0v1364h332v-1096h444v-268h-776z" />
<glyph unicode="M" horiz-adv-x="1757" d="M129 0v1364h389l361 -735l358 735h389v-1364h-332v778l-415 -831l-418 831v-778h-332z" />
<glyph unicode="N" horiz-adv-x="1419" d="M129 0v1364h332l497 -768v768h332v-1364h-332l-497 776v-776h-332z" />
<glyph unicode="O" horiz-adv-x="1583" d="M68 676q0 301 212 509t521 208q303 0 507.5 -202t204.5 -501q0 -303 -206.5 -510t-507.5 -207q-305 0 -518 204t-213 499zM408 680q0 -170 111.5 -285.5t273 -115.5t273.5 116.5t112 286.5t-111 285.5t-274.5 115.5t-274 -115.5t-110.5 -287.5z" />
<glyph unicode="P" horiz-adv-x="1146" d="M129 0v1364h471q242 0 375 -117t133 -329q0 -217 -132 -346.5t-358 -129.5h-157v-442h-332zM461 715h92q102 0 159.5 49t57.5 137q0 86 -53 138.5t-142 52.5h-114v-377z" />
<glyph unicode="Q" horiz-adv-x="1583" d="M68 678q0 301 212 508t519 207q303 0 508.5 -201t205.5 -500q0 -270 -161 -463l116 -131l-235 -192l-113 139q-162 -72 -327 -72q-301 0 -513 206t-212 499zM406 682q0 -170 111.5 -285.5t275.5 -115.5q61 0 94 10l-90 108l235 199l98 -115q47 109 48 209 q0 162 -113 276.5t-272 114.5q-164 0 -275.5 -115.5t-111.5 -285.5z" />
<glyph unicode="R" horiz-adv-x="1218" d="M129 0v1364h442q549 0 549 -446q0 -315 -264 -416l301 -502h-395l-301 526v-526h-332zM461 715h106q102 0 159.5 49t57.5 137q0 86 -53 138.5t-141 52.5h-129v-377z" />
<glyph unicode="S" horiz-adv-x="1095" d="M53 414h326v-23q0 -51 48 -88t114 -37q59 0 99 32t40 77q0 47 -38 75.5t-159 71.5q-225 82 -320 183.5t-95 257.5q0 195 130 312.5t343 117.5q207 0 333.5 -112t153.5 -320h-338q-14 137 -149 137q-66 0 -103 -29t-37 -80q0 -53 38 -81.5t182 -82.5q211 -80 292 -155 q115 -109 115 -275q0 -190 -134 -306t-353 -116q-225 0 -356.5 118t-131.5 323z" />
<glyph unicode="T" horiz-adv-x="960" d="M0 1096v268h961v-268h-316v-1096h-332v1096h-313z" />
<glyph unicode="U" horiz-adv-x="1308" d="M109 584v780h331v-795q0 -150 52.5 -220t162.5 -70q113 0 163 68.5t50 221.5v795h332v-780q0 -293 -141 -452t-402 -159q-272 0 -421 168q-127 143 -127 443z" />
<glyph unicode="V" horiz-adv-x="1161" d="M0 1364h340l233 -834l246 834h342l-409 -1364h-359z" />
<glyph unicode="W" horiz-adv-x="1751" d="M0 1364h352l174 -774l183 774h333l177 -793l184 793h348l-365 -1364h-344l-174 807l-174 -807h-342z" />
<glyph unicode="X" horiz-adv-x="1216" d="M8 0l416 733l-356 631h378l164 -328l174 328h375l-360 -631l411 -733h-374l-226 440l-223 -440h-379z" />
<glyph unicode="Y" horiz-adv-x="1167" d="M-27 1364h394l223 -420l217 420h389l-442 -762v-602h-332v602z" />
<glyph unicode="Z" horiz-adv-x="1138" d="M27 0l571 1096h-506v268h1020l-571 -1096h518v-268h-1032z" />
<glyph unicode="[" horiz-adv-x="694" d="M123 -416v1780h491v-176h-231v-1426h231v-178h-491z" />
<glyph unicode="\" horiz-adv-x="800" d="M-117 1364h203l674 -1780h-203z" />
<glyph unicode="]" horiz-adv-x="694" d="M80 -240h231v1428h-231v176h491v-1780h-491v176z" />
<glyph unicode="^" d="M6 754l395 610h222l393 -610h-213l-291 434l-293 -434h-213z" />
<glyph unicode="_" d="M0 -137h1024v-232h-1024v232z" />
<glyph unicode="`" d="M180 1386h299l172 -290h-182z" />
<glyph unicode="a" horiz-adv-x="1271" d="M59 461q0 227 139.5 375.5t352.5 148.5q90 0 157.5 -32.5t137.5 -108.5v104h311v-948h-309v104q-127 -141 -324 -141q-205 0 -335 139.5t-130 358.5zM391 467q0 -111 64.5 -185.5t160.5 -74.5q92 0 160 71t74 177v18q0 113 -65.5 183.5t-168.5 70.5q-98 0 -161.5 -73.5 t-63.5 -186.5z" />
<glyph unicode="b" horiz-adv-x="1269" d="M117 0v1364h309v-508q123 129 295 129q215 0 352 -145.5t137 -372.5t-131 -365.5t-348 -138.5q-106 0 -176 31.5t-129 107.5v-102h-309zM422 457q0 -106 65.5 -178t161.5 -72q100 0 165 72.5t65 185.5t-64.5 187.5t-161 74.5t-164 -78.5t-67.5 -191.5z" />
<glyph unicode="c" horiz-adv-x="968" d="M59 469q0 225 146.5 370.5t372.5 145.5q205 0 395 -164l-207 -188q-76 78 -174 78q-94 0 -157.5 -68t-63.5 -166q0 -102 67.5 -171.5t167.5 -69.5h2q75 0 158 67l186 -199q-158 -141 -372 -141q-225 0 -373 144.5t-148 361.5z" />
<glyph unicode="d" horiz-adv-x="1275" d="M59 463q0 223 139.5 372.5t348.5 149.5q176 0 301 -125v504h311v-1364h-309v104q-57 -78 -127 -109.5t-180 -31.5q-219 0 -351.5 137.5t-132.5 362.5zM391 463q0 -109 66.5 -182.5t165.5 -73.5q96 0 160.5 73.5t64.5 184.5q0 113 -64.5 187.5t-163 74.5t-164 -76 t-65.5 -188z" />
<glyph unicode="e" horiz-adv-x="1153" d="M59 477q0 225 142.5 366.5t369.5 141.5q238 0 383.5 -147.5t145.5 -391.5v-38h-717q16 -80 72.5 -126t140.5 -46q133 0 188 104l287 -72q-39 -76 -68.5 -113.5t-84.5 -80.5q-143 -111 -326 -111q-233 0 -383 144.5t-150 369.5zM377 571h405q-33 156 -204 156 q-166 0 -201 -156z" />
<glyph unicode="f" horiz-adv-x="610" d="M43 690v258h92v17q0 203 97.5 301t295.5 98h29v-287q-111 -14 -111 -112v-15h111v-260h-111v-690h-309v690h-94z" />
<glyph unicode="g" horiz-adv-x="1224" d="M23 463q0 236 134 379t353 143q184 0 293 -133v96h305v-844q0 -158 -28.5 -253t-98.5 -164q-156 -152 -414 -152q-285 0 -489 197l186 192q119 -131 287 -131q119 0 185.5 70.5t66.5 191.5v47q-125 -139 -326 -139q-199 0 -326.5 140.5t-127.5 359.5zM354 477 q0 -106 64.5 -173.5t165 -67.5t158 56t57.5 159v16q-4 117 -62.5 180.5t-158.5 63.5q-98 0 -161 -65.5t-63 -168.5z" />
<glyph unicode="h" horiz-adv-x="1103" d="M117 0v1364h309v-504q106 125 246 125q133 0 231 -88q51 -45 70.5 -107.5t19.5 -171.5v-618h-309v569q-2 72 -36 115t-91 43q-61 0 -96 -42t-35 -116v-569h-309z" />
<glyph unicode="i" horiz-adv-x="542" d="M104 1222.5q0 71.5 47.5 119t119 47.5t118.5 -47.5t47 -119t-47 -118.5t-118.5 -47t-119 47t-47.5 118.5zM117 0v948h309v-948h-309z" />
<glyph unicode="j" horiz-adv-x="542" d="M-49 -137q20 -2 45 -2q119 0 119 139v948h311v-948q0 -219 -95 -321.5t-300 -102.5q-37 0 -80 4v283zM104 1222.5q0 71.5 47.5 119t119 47.5t118.5 -47.5t47 -119t-47 -118.5t-118.5 -47t-119 47t-47.5 118.5z" />
<glyph unicode="k" horiz-adv-x="997" d="M117 0v1364h309v-754l211 338h352l-276 -450l276 -498h-352l-211 379v-379h-309z" />
<glyph unicode="l" horiz-adv-x="542" d="M117 0v1364h309v-1364h-309z" />
<glyph unicode="m" horiz-adv-x="1640" d="M115 0v948h311v-112q77 149 254 149h2q190 0 260 -151q91 151 277 151h2q145 0 225 -84q47 -47 65.5 -107.5t18.5 -168.5v-625h-309v571q-2 72 -34 114t-89 42q-55 0 -88 -42t-33 -114v-571h-309v561q-4 166 -125 166q-117 0 -117 -166v-561h-311z" />
<glyph unicode="n" horiz-adv-x="1110" d="M115 0v948h311v-106q47 80 101.5 111.5t142.5 31.5q154 0 241 -92q49 -51 68.5 -117.5t19.5 -193.5v-582h-309v578q-2 72 -37 110.5t-96 38.5q-59 0 -95 -42t-36 -112v-573h-311z" />
<glyph unicode="o" horiz-adv-x="1183" d="M59 473q0 225 148.5 368.5t382.5 143.5q229 0 381.5 -146.5t152.5 -367.5q0 -217 -152.5 -362.5t-381.5 -145.5q-231 0 -381 143.5t-150 366.5zM371 475q0 -109 60.5 -174t160.5 -65q98 0 158.5 65.5t60.5 171.5q0 109 -59.5 173.5t-159.5 64.5q-98 0 -159.5 -65.5 t-61.5 -170.5z" />
<glyph unicode="p" horiz-adv-x="1277" d="M115 -416v1364h311v-90q106 127 295 127q219 0 358.5 -145.5t139.5 -374.5q0 -231 -131.5 -366.5t-356.5 -135.5q-195 0 -305 119v-498h-311zM426 463q0 -117 60.5 -186.5t163 -69.5t170 71.5t67.5 182.5q0 117 -64.5 191.5t-167.5 74.5q-100 0 -164.5 -74.5 t-64.5 -189.5z" />
<glyph unicode="q" horiz-adv-x="1273" d="M59 461q0 231 140.5 377.5t359.5 146.5q98 0 165 -27.5t124 -93.5v84h311v-1364h-309v492q-68 -61 -140.5 -87t-181.5 -26q-207 0 -338 139.5t-131 358.5zM391 467q0 -111 65.5 -185.5t161.5 -74.5q98 0 166 75.5t68 186.5t-66.5 184.5t-167.5 73.5q-98 0 -162.5 -73.5 t-64.5 -186.5z" />
<glyph unicode="r" horiz-adv-x="696" d="M115 0v948h311v-127q55 164 221 164h29v-317q-14 0 -32.5 1t-25.5 1q-100 0 -146 -54.5t-46 -169.5v-446h-311z" />
<glyph unicode="s" horiz-adv-x="866" d="M45 281h297q8 -51 27.5 -74t58.5 -23q31 0 51.5 18.5t20.5 47.5q0 35 -30 55.5t-128 52.5q-156 51 -225.5 125t-69.5 189q0 141 104.5 227t278.5 86q168 0 266.5 -84.5t100.5 -234.5h-289q-2 6 -2 18q0 33 -25.5 55.5t-62.5 22.5q-33 0 -54.5 -17.5t-21.5 -44.5 q0 -57 109 -86q203 -55 280 -129q82 -78 82 -202q0 -143 -105.5 -231.5t-277.5 -88.5q-176 0 -278.5 84t-106.5 234z" />
<glyph unicode="t" horiz-adv-x="604" d="M33 694v260h96v234h311v-234h109v-260h-109v-375q0 -63 76 -63h33v-256h-240q-96 0 -138 45t-42 152v497h-96z" />
<glyph unicode="u" horiz-adv-x="1081" d="M102 350v598h310v-573q0 -74 34.5 -115t98.5 -41q57 0 90 36t33 97v596h311v-596q0 -111 -25.5 -178.5t-85.5 -114.5q-125 -96 -325 -96q-440 0 -441 387z" />
<glyph unicode="v" horiz-adv-x="976" d="M-10 948h319l183 -489l178 489h317l-340 -948h-317z" />
<glyph unicode="w" horiz-adv-x="1525" d="M-10 948h313l168 -520l137 520h299l148 -520l168 520h313l-297 -948h-330l-145 514l-139 -514h-338z" />
<glyph unicode="x" horiz-adv-x="1013" d="M-6 948h389l135 -207l127 207h377l-330 -479l330 -469h-375l-129 217l-137 -217h-363l322 469z" />
<glyph unicode="y" horiz-adv-x="989" d="M-10 948h329l162 -497l191 497h327l-518 -1370h-331l167 438z" />
<glyph unicode="z" horiz-adv-x="880" d="M25 0l352 690h-324v258h803l-354 -690h336v-258h-813z" />
<glyph unicode="{" horiz-adv-x="702" d="M109 416v182q66 14 89 53t23 131v322q0 160 72 226.5t242 66.5q53 0 110 -4v-176h-39q-102 0 -133 -23t-31 -98v-70v-262q0 -104 -24.5 -155.5t-98.5 -100.5q70 -47 96.5 -102.5t26.5 -155.5v-260v-70q0 -76 31 -98.5t133 -22.5q2 0 14.5 1t24.5 1v-178l-33 -2 q-18 0 -42.5 -1t-34.5 -1q-170 0 -242 67.5t-72 229.5v317q0 90 -24.5 130t-87.5 53z" />
<glyph unicode="|" d="M416 -362v1726h188v-1726h-188z" />
<glyph unicode="}" horiz-adv-x="702" d="M57 -201h37q102 0 134 22.5t32 98.5v70v262q0 102 24.5 153.5t98.5 102.5q-70 45 -96.5 99.5t-26.5 156.5v262v70q-2 76 -32.5 98.5t-133.5 22.5h-37v176l33 2q33 2 78 2q170 0 241.5 -67.5t71.5 -227.5v-318q0 -92 24.5 -133t88.5 -53v-180q-66 -14 -89.5 -53 t-23.5 -132v-321q0 -160 -71.5 -226.5t-241.5 -66.5q-8 0 -111 4v176z" />
<glyph unicode="~" horiz-adv-x="1021" d="M2 1106q78 135 142.5 189.5t148.5 54.5q80 0 252 -74q147 -66 186 -66q49 0 89 36t93 126l105 -119q-78 -131 -141.5 -182t-145.5 -51q-57 0 -135 33l-92 39l-90 36q-78 31 -115 31q-53 0 -93 -37t-97 -137z" />
<glyph unicode="&#xa1;" horiz-adv-x="616" d="M135 807q0 76 49 124t123 48q76 0 125 -48t49 -124t-49 -124t-125 -48t-124 48t-48 124zM156 -416v893h303v-893h-303z" />
<glyph unicode="&#xa2;" d="M94 649q0 307 219 441q55 33 99.5 47t130.5 24v144h102v-144q100 -10 167 -43t157 -112l-201 -177q-33 33 -55.5 46.5t-67.5 21.5v-483q70 8 123 53l184 -186q-74 -63 -140.5 -92t-166.5 -39v-213h-102v213q-217 31 -333 159.5t-116 339.5zM387 662q0 -201 156 -248v483 q-156 -45 -156 -235z" />
<glyph unicode="&#xa3;" horiz-adv-x="1091" d="M78 0q23 332 284 362q43 86 44 132q0 84 -68 139h-238v137h131q-47 57 -64 105.5t-17 115.5q0 172 118.5 282.5t302.5 110.5q121 0 231.5 -59t158.5 -147q35 -63 38 -185h-272q-2 70 -41 115t-98 45q-53 0 -93 -40t-40 -95q0 -61 25.5 -107.5t113.5 -140.5h264v-135h-201 q27 -72 27 -115t-17.5 -80t-72.5 -110l8 -2l39 -13q39 -16 61 -30q121 -66 181 -66q55 0 116 53v-227q-90 -63 -200 -63q-53 0 -102.5 18t-149.5 78q-80 47 -127 47q-49 0 -80 -34t-33 -91h-229z" />
<glyph unicode="&#xa4;" horiz-adv-x="1363" d="M47 1262l137 137l211 -211q139 92 289 92q145 0 281 -88l209 207l137 -137l-207 -207q94 -143 94 -287q0 -147 -90 -281l209 -208l-135 -140l-209 209q-137 -94 -291 -94q-143 0 -289 94l-209 -207l-135 135l207 209q-90 133 -90 283q0 145 92 283zM397 768 q0 -121 83 -205t202 -84t203 85t84 204t-84 203t-203 84t-202 -84t-83 -203z" />
<glyph unicode="&#xa5;" d="M4 1364h326l188 -483l189 483h311l-203 -442h162v-150h-229l-78 -170v-14h266v-150h-264v-438h-312v436h-272v150h272v16l-79 168h-236v152h166z" />
<glyph unicode="&#xa7;" d="M72 494q0 121 61.5 206.5t169.5 112.5q-180 78 -180 262q0 143 104.5 230.5t274.5 87.5q119 0 215 -43t143 -117q45 -74 49 -193h-260q-6 66 -43 103t-96 37q-53 0 -89 -33t-36 -80q0 -51 43 -84t172 -86q117 -47 168 -75.5t92 -69.5q90 -96 90 -228q0 -217 -219 -325 q166 -84 166 -260q0 -152 -111.5 -250.5t-285.5 -98.5q-182 0 -286.5 97.5t-113.5 271.5h267q0 -72 38.5 -114t102.5 -42q55 0 91 37t36 92q0 59 -39 91t-174 81q-111 39 -163 67t-93 69q-94 100 -94 254zM328 500q0 -70 52 -119t128 -49t129 49t53 119q0 72 -53 121 t-129 49t-128 -49.5t-52 -120.5z" />
<glyph unicode="&#xa8;" d="M127 1249.5q0 65.5 46 110.5t114 45q66 0 111.5 -45t45.5 -111q0 -63 -46 -108t-111 -45q-68 0 -114 44t-46 109.5zM578 1249q0 66 46 111t111 45q68 0 114 -45t46 -110.5t-46 -109.5t-114 -44q-66 0 -111.5 45t-45.5 108z" />
<glyph unicode="&#xa9;" horiz-adv-x="1572" d="M70 682q0 297 209.5 506t506.5 209t507 -209t208 -506q0 -297 -209 -505t-506 -208t-506.5 208t-209.5 505zM211 682q0 -240 168 -410t403.5 -170t402.5 169t167 409q0 242 -166 411t-402 169q-238 0 -405.5 -169t-167.5 -409zM393 694q0 188 115 308t297 120 q150 0 254 -85t112 -214h-180q-31 147 -188 148q-102 0 -163.5 -75t-61.5 -204q0 -127 60 -201.5t163 -74.5q172 0 194 192h185q-12 -160 -114.5 -252t-266.5 -92q-182 0 -294 118t-112 312z" />
<glyph unicode="&#xaa;" horiz-adv-x="681" d="M16 608v68h650v-68h-650zM20 1083q0 131 80 217t201 86q94 1 160 -71v49h186v-545h-184v49q-68 -72 -176 -71q-117 0 -192 80.5t-75 205.5zM217 1085q0 -59 35 -99t86 -40q53 0 90 43t37 103q0 55 -35 97t-80 42h-12l-59 -19q-37 -37 -49.5 -61.5t-12.5 -65.5z" />
<glyph unicode="&#xab;" horiz-adv-x="872" d="M68 492l188 342h193l-193 -342l193 -334h-191zM410 492l188 342h193l-193 -342l193 -334h-191z" />
<glyph unicode="&#xac;" d="M14 391v174h996v-565h-176v391h-820z" />
<glyph unicode="&#xad;" horiz-adv-x="466" d="M0 365v270h467v-270h-467z" />
<glyph unicode="&#xaf;" d="M180 1153v176h662v-176h-662z" />
<glyph unicode="&#xb0;" horiz-adv-x="763" d="M109 1122q0 115 80.5 195t193.5 80t192.5 -79t79.5 -191.5t-80.5 -192.5t-193.5 -80t-192.5 79t-79.5 189zM231 1124q0 -59 44 -103t105.5 -44t106.5 44t45 103q0 61 -44 105.5t-107 44.5q-61 0 -105.5 -44t-44.5 -106z" />
<glyph unicode="&#xb1;" d="M14 96v195h996v-195h-996zM14 743v195h400v379h194v-377h402v-195h-400v-364h-194v362h-402z" />
<glyph unicode="&#xb4;" d="M373 1096l170 290h299l-287 -290h-182z" />
<glyph unicode="&#xb6;" d="M53 993q0 113 56.5 204t152.5 132q82 35 209 35h428v-1579h-147v1483h-162v-1481h-150v846q-10 -2 -28 -2q-158 0 -258.5 100t-100.5 262z" />
<glyph unicode="&#xb7;" horiz-adv-x="368" d="M0 702.5q0 79.5 51 132t133 52.5q80 0 132.5 -52.5t52.5 -132t-52.5 -132t-132.5 -52.5q-82 0 -133 52.5t-51 132z" />
<glyph unicode="&#xb8;" d="M313 -315q63 33 102.5 70.5t90.5 119.5l203 -88q-66 -80 -120.5 -121t-150.5 -84z" />
<glyph unicode="&#xba;" horiz-adv-x="681" d="M16 608v68h650v-68h-650zM37 1092q0 129 85 211.5t218 82.5q131 0 217 -84.5t86 -211.5q0 -125 -86 -209t-217 -84q-133 0 -218 83t-85 212zM221 1092q0 -59 33 -94t86 -35t86 34.5t33 94t-32 93.5t-87 34q-53 0 -86 -35t-33 -92z" />
<glyph unicode="&#xbb;" horiz-adv-x="872" d="M82 158l192 342l-192 334h190l191 -334l-191 -342h-190zM422 834h192l189 -334l-189 -342h-190l190 342z" />
<glyph unicode="&#xbf;" horiz-adv-x="935" d="M66 -70q0 182 174 310q74 55 92 79.5t18 71.5v29v33h316q0 -23 1 -48.5t1 -29.5q0 -88 -26 -143.5t-91 -106.5l-78 -62q-51 -43 -71.5 -70.5t-20.5 -60.5q0 -43 29.5 -69.5t78.5 -26.5q111 0 115 127h287q-4 -193 -111.5 -299t-298.5 -106q-184 0 -299.5 103t-115.5 269z M334 807q0 76 49 124t123 48q76 0 125 -48t49 -124t-49 -124t-125 -48q-74 0 -123 48t-49 124z" />
<glyph unicode="&#xc0;" horiz-adv-x="1320" d="M0 0l451 1364h419l451 -1364h-363l-61 197h-483l-62 -197h-352zM327 1783h299l172 -290h-182zM496 465h317l-160 508z" />
<glyph unicode="&#xc1;" horiz-adv-x="1320" d="M0 0l451 1364h419l451 -1364h-363l-61 197h-483l-62 -197h-352zM496 465h317l-160 508zM520 1493l170 290h299l-287 -290h-182z" />
<glyph unicode="&#xc2;" horiz-adv-x="1320" d="M0 0l451 1364h419l451 -1364h-363l-61 197h-483l-62 -197h-352zM318 1493l207 290h287l192 -290h-205l-135 139l-141 -139h-205zM496 465h317l-160 508z" />
<glyph unicode="&#xc3;" horiz-adv-x="1320" d="M0 0l451 1364h419l451 -1364h-363l-61 197h-483l-62 -197h-352zM329 1501q35 256 219 256q59 0 166 -41q16 -6 19 -8l16 -4q14 -6 27 -7q33 1 43 64h196q-14 -117 -73.5 -186.5t-145.5 -69.5q-55 0 -117 24l-49 21l-22 8l-17 6q-16 4 -20 4q-33 0 -45 -67h-197zM496 465 h317l-160 508z" />
<glyph unicode="&#xc4;" horiz-adv-x="1320" d="M0 0l451 1364h419l451 -1364h-363l-61 197h-483l-62 -197h-352zM277 1659.5q0 65.5 46 110.5t114 45q66 0 111.5 -45t45.5 -111q0 -63 -46 -108t-111 -45q-68 0 -114 44t-46 109.5zM496 465h317l-160 508zM728 1659q0 66 46 111t111 45q68 0 114 -45t46 -110.5 t-46 -109.5t-114 -44q-66 0 -111.5 45t-45.5 108z" />
<glyph unicode="&#xc5;" horiz-adv-x="1320" d="M0 0l451 1364h419l451 -1364h-363l-61 197h-483l-62 -197h-352zM456 1698q0 84 58.5 140.5t144.5 56.5q84 0 142.5 -57.5t58.5 -139.5t-58.5 -139t-142.5 -57q-86 0 -144.5 56t-58.5 140zM496 465h317l-160 508zM567 1698q0 -37 26.5 -63.5t65.5 -26.5q37 0 64.5 26.5 t27.5 63.5t-27.5 63.5t-64.5 26.5q-39 0 -65.5 -26.5t-26.5 -63.5z" />
<glyph unicode="&#xc6;" horiz-adv-x="1777" d="M-14 0l729 1364h975v-268h-437v-279h437v-268h-439v-281h439v-268h-768v240h-455l-127 -240h-354zM600 496h320v614z" />
<glyph unicode="&#xc7;" horiz-adv-x="1302" d="M68 678q0 315 194.5 515t501.5 200q176 0 321 -70q88 -41 195 -139l-211 -221q-141 123 -293 122q-166 0 -269.5 -110.5t-103.5 -288.5t111 -292.5t283 -114.5q166 -1 272 118l195 -231q-104 -88 -199 -131q-150 -61 -311 -62q-301 0 -493.5 198t-192.5 507zM426 -328 q100 45 146 90t63 113l289 -80q-55 -72 -125 -123q-95 -65 -232 -108z" />
<glyph unicode="&#xc8;" horiz-adv-x="937" d="M70 0v1364h780v-268h-451v-279h451v-268h-449v-281h449v-268h-780zM127 1783h299l172 -290h-182z" />
<glyph unicode="&#xc9;" horiz-adv-x="937" d="M70 0v1364h780v-268h-451v-279h451v-268h-449v-281h449v-268h-780zM293 1493l170 290h299l-287 -290h-182z" />
<glyph unicode="&#xca;" horiz-adv-x="937" d="M70 0v1364h780v-268h-451v-279h451v-268h-449v-281h449v-268h-780zM117 1493l207 290h287l192 -290h-205l-135 139l-141 -139h-205z" />
<glyph unicode="&#xcb;" horiz-adv-x="937" d="M70 0v1364h780v-268h-451v-279h451v-268h-449v-281h449v-268h-780zM76 1659.5q0 65.5 46 110.5t114 45q66 0 111.5 -45t45.5 -111q0 -63 -46 -108t-111 -45q-68 0 -114 44t-46 109.5zM527 1659q0 66 46 111t111 45q68 0 114 -45t46 -110.5t-46 -109.5t-114 -44 q-66 0 -111.5 45t-45.5 108z" />
<glyph unicode="&#xcc;" horiz-adv-x="589" d="M-35 1783h299l172 -290h-182zM129 0v1364h332v-1364h-332z" />
<glyph unicode="&#xcd;" horiz-adv-x="589" d="M129 0v1364h332v-1364h-332zM156 1493l170 290h299l-287 -290h-182z" />
<glyph unicode="&#xce;" horiz-adv-x="589" d="M-47 1493l207 290h287l192 -290h-205l-135 139l-141 -139h-205zM129 0v1364h332v-1364h-332z" />
<glyph unicode="&#xcf;" horiz-adv-x="589" d="M-88 1657.5q0 65.5 46 110.5t114 45q66 0 111.5 -45t45.5 -111q0 -63 -46 -108t-111 -45q-68 0 -114 44t-46 109.5zM129 0v1364h332v-1364h-332zM363 1657q0 66 46 111t111 45q68 0 114 -45t46 -110.5t-46 -109.5t-114 -44q-66 0 -111.5 45t-45.5 108z" />
<glyph unicode="&#xd1;" horiz-adv-x="1419" d="M129 0v1364h332l497 -768v768h332v-1364h-332l-497 776v-776h-332zM342 1503q35 256 219 256q59 0 166 -41q16 -6 19 -8l16 -4q14 -6 27 -7q33 1 43 64h196q-14 -117 -73.5 -186.5t-145.5 -69.5q-55 0 -117 24l-49 21l-22 8l-17 6q-16 4 -20 4q-33 0 -45 -67h-197z" />
<glyph unicode="&#xd2;" horiz-adv-x="1583" d="M68 676q0 301 212 509t521 208q303 0 507.5 -202t204.5 -501q0 -303 -206.5 -510t-507.5 -207q-305 0 -518 204t-213 499zM408 680q0 -170 111.5 -285.5t273 -115.5t273.5 116.5t112 286.5t-111 285.5t-274.5 115.5t-274 -115.5t-110.5 -287.5zM459 1812h299l172 -290 h-182z" />
<glyph unicode="&#xd3;" horiz-adv-x="1583" d="M68 676q0 301 212 509t521 208q303 0 507.5 -202t204.5 -501q0 -303 -206.5 -510t-507.5 -207q-305 0 -518 204t-213 499zM408 680q0 -170 111.5 -285.5t273 -115.5t273.5 116.5t112 286.5t-111 285.5t-274.5 115.5t-274 -115.5t-110.5 -287.5zM654 1522l170 290h299 l-287 -290h-182z" />
<glyph unicode="&#xd4;" horiz-adv-x="1583" d="M68 676q0 301 212 509t521 208q303 0 507.5 -202t204.5 -501q0 -303 -206.5 -510t-507.5 -207q-305 0 -518 204t-213 499zM408 680q0 -170 111.5 -285.5t273 -115.5t273.5 116.5t112 286.5t-111 285.5t-274.5 115.5t-274 -115.5t-110.5 -287.5zM449 1522l207 290h287 l192 -290h-205l-135 139l-141 -139h-205z" />
<glyph unicode="&#xd5;" horiz-adv-x="1583" d="M68 676q0 301 212 509t521 208q303 0 507.5 -202t204.5 -501q0 -303 -206.5 -510t-507.5 -207q-305 0 -518 204t-213 499zM408 680q0 -170 111.5 -285.5t273 -115.5t273.5 116.5t112 286.5t-111 285.5t-274.5 115.5t-274 -115.5t-110.5 -287.5zM463 1530q35 256 219 256 q59 0 166 -41q16 -6 19 -8l16 -4q14 -6 27 -7q33 1 43 64h196q-14 -117 -73.5 -186.5t-145.5 -69.5q-55 0 -117 24l-49 21l-22 8l-17 6q-16 4 -20 4q-33 0 -45 -67h-197z" />
<glyph unicode="&#xd6;" horiz-adv-x="1583" d="M68 676q0 301 212 509t521 208q303 0 507.5 -202t204.5 -501q0 -303 -206.5 -510t-507.5 -207q-305 0 -518 204t-213 499zM408 680q0 -170 111.5 -285.5t273 -115.5t273.5 116.5t112 286.5t-111 285.5t-274.5 115.5t-274 -115.5t-110.5 -287.5zM408 1687.5 q0 65.5 46 110.5t114 45q66 0 111.5 -45t45.5 -111q0 -63 -46 -108t-111 -45q-68 0 -114 44t-46 109.5zM859 1687q0 66 46 111t111 45q68 0 114 -45t46 -110.5t-46 -109.5t-114 -44q-66 0 -111.5 45t-45.5 108z" />
<glyph unicode="&#xd8;" horiz-adv-x="1581" d="M66 672q0 309 203.5 515t510.5 206q164 0 328 -74q92 -43 164 -113l149 140l74 -89l-141 -131q61 -90 87.5 -144t47.5 -130q23 -94 22 -176q0 -297 -213 -500t-524 -203q-164 0 -319 74q-84 44 -154 107l-143 -129l-76 84l139 127q-59 78 -85.5 129t-47.5 129 q-23 86 -22 178zM406 682q0 -135 57 -223l569 530q-109 96 -239 96q-162 0 -274.5 -116.5t-112.5 -286.5zM537 371q100 -92 243 -92q166 0 281 115.5t115 283.5q0 123 -66 223z" />
<glyph unicode="&#xd9;" horiz-adv-x="1308" d="M109 584v780h331v-795q0 -150 52.5 -220t162.5 -70q113 0 163 68.5t50 221.5v795h332v-780q0 -293 -141 -452t-402 -159q-272 0 -421 168q-127 143 -127 443zM321 1783h299l172 -290h-182z" />
<glyph unicode="&#xda;" horiz-adv-x="1308" d="M109 584v780h331v-795q0 -150 52.5 -220t162.5 -70q113 0 163 68.5t50 221.5v795h332v-780q0 -293 -141 -452t-402 -159q-272 0 -421 168q-127 143 -127 443zM516 1493l170 290h299l-287 -290h-182z" />
<glyph unicode="&#xdb;" horiz-adv-x="1308" d="M109 584v780h331v-795q0 -150 52.5 -220t162.5 -70q113 0 163 68.5t50 221.5v795h332v-780q0 -293 -141 -452t-402 -159q-272 0 -421 168q-127 143 -127 443zM311 1493l207 290h287l192 -290h-205l-135 139l-141 -139h-205z" />
<glyph unicode="&#xdc;" horiz-adv-x="1308" d="M109 584v780h331v-795q0 -150 52.5 -220t162.5 -70q113 0 163 68.5t50 221.5v795h332v-780q0 -293 -141 -452t-402 -159q-272 0 -421 168q-127 143 -127 443zM270 1659.5q0 65.5 46 110.5t114 45q66 0 111.5 -45t45.5 -111q0 -63 -46 -108t-111 -45q-68 0 -114 44 t-46 109.5zM721 1659q0 66 46 111t111 45q68 0 114 -45t46 -110.5t-46 -109.5t-114 -44q-66 0 -111.5 45t-45.5 108z" />
<glyph unicode="&#xdf;" horiz-adv-x="1124" d="M51 690v258h84v101q0 150 115 245t295 95q193 0 312.5 -92.5t119.5 -241.5q0 -186 -166 -256q121 -41 187.5 -140.5t66.5 -236.5q0 -203 -101.5 -320.5t-271.5 -117.5q-90 0 -180 32l47 256q20 -6 47 -6q70 0 113 47t43 123q0 164 -203 182v279q117 8 117 107 q0 47 -34 80.5t-81 33.5q-63 0 -89 -38t-26 -132v-948h-311v690h-84z" />
<glyph unicode="&#xe0;" horiz-adv-x="1271" d="M59 461q0 227 139.5 375.5t352.5 148.5q90 0 157.5 -32.5t137.5 -108.5v104h311v-948h-309v104q-127 -141 -324 -141q-205 0 -335 139.5t-130 358.5zM233 1413h299l172 -290h-182zM391 467q0 -111 64.5 -185.5t160.5 -74.5q92 0 160 71t74 177v18q0 113 -65.5 183.5 t-168.5 70.5q-98 0 -161.5 -73.5t-63.5 -186.5z" />
<glyph unicode="&#xe1;" horiz-adv-x="1271" d="M59 461q0 227 139.5 375.5t352.5 148.5q90 0 157.5 -32.5t137.5 -108.5v104h311v-948h-309v104q-127 -141 -324 -141q-205 0 -335 139.5t-130 358.5zM391 467q0 -111 64.5 -185.5t160.5 -74.5q92 0 160 71t74 177v18q0 113 -65.5 183.5t-168.5 70.5q-98 0 -161.5 -73.5 t-63.5 -186.5zM479 1123l170 290h299l-287 -290h-182z" />
<glyph unicode="&#xe2;" horiz-adv-x="1271" d="M59 461q0 227 139.5 375.5t352.5 148.5q90 0 157.5 -32.5t137.5 -108.5v104h311v-948h-309v104q-127 -141 -324 -141q-205 0 -335 139.5t-130 358.5zM264 1123l207 290h287l192 -290h-205l-135 139l-141 -139h-205zM391 467q0 -111 64.5 -185.5t160.5 -74.5q92 0 160 71 t74 177v18q0 113 -65.5 183.5t-168.5 70.5q-98 0 -161.5 -73.5t-63.5 -186.5z" />
<glyph unicode="&#xe3;" horiz-adv-x="1271" d="M59 461q0 227 139.5 375.5t352.5 148.5q90 0 157.5 -32.5t137.5 -108.5v104h311v-948h-309v104q-127 -141 -324 -141q-205 0 -335 139.5t-130 358.5zM262 1122q35 256 219 256q59 0 166 -41q16 -6 19 -8l16 -4q14 -6 27 -7q33 1 43 64h196q-14 -117 -73.5 -186.5 t-145.5 -69.5q-55 0 -117 24l-49 21l-22 8l-17 6q-16 4 -20 4q-33 0 -45 -67h-197zM391 467q0 -111 64.5 -185.5t160.5 -74.5q92 0 160 71t74 177v18q0 113 -65.5 183.5t-168.5 70.5q-98 0 -161.5 -73.5t-63.5 -186.5z" />
<glyph unicode="&#xe4;" horiz-adv-x="1271" d="M59 461q0 227 139.5 375.5t352.5 148.5q90 0 157.5 -32.5t137.5 -108.5v104h311v-948h-309v104q-127 -141 -324 -141q-205 0 -335 139.5t-130 358.5zM295 1276.5q0 65.5 46 110.5t114 45q66 0 111.5 -45t45.5 -111q0 -63 -46 -108t-111 -45q-68 0 -114 44t-46 109.5z M391 467q0 -111 64.5 -185.5t160.5 -74.5q92 0 160 71t74 177v18q0 113 -65.5 183.5t-168.5 70.5q-98 0 -161.5 -73.5t-63.5 -186.5zM746 1276q0 66 46 111t111 45q68 0 114 -45t46 -110.5t-46 -109.5t-114 -44q-66 0 -111.5 45t-45.5 108z" />
<glyph unicode="&#xe5;" horiz-adv-x="1271" d="M59 461q0 227 139.5 375.5t352.5 148.5q90 0 157.5 -32.5t137.5 -108.5v104h311v-948h-309v104q-127 -141 -324 -141q-205 0 -335 139.5t-130 358.5zM391 467q0 -111 64.5 -185.5t160.5 -74.5q92 0 160 71t74 177v18q0 113 -65.5 183.5t-168.5 70.5q-98 0 -161.5 -73.5 t-63.5 -186.5zM428 1319q0 84 58.5 140.5t144.5 56.5q84 0 142.5 -57.5t58.5 -139.5t-58.5 -139t-142.5 -57q-86 0 -144.5 56t-58.5 140zM539 1319q0 -37 26.5 -63.5t65.5 -26.5q37 0 64.5 26.5t27.5 63.5t-27.5 63.5t-64.5 26.5q-39 0 -65.5 -26.5t-26.5 -63.5z" />
<glyph unicode="&#xe6;" horiz-adv-x="1953" d="M59 463q0 225 137.5 373.5t342.5 148.5q207 0 333 -125v88h297v-88q59 70 116.5 97.5t146.5 27.5q199 0 334 -149.5t135 -370.5q0 -6 -1.5 -26.5t-1.5 -35.5h-727q16 -78 80 -122.5t152 -44.5q61 0 102 23.5t82 82.5l287 -82q-59 -113 -135 -180q-133 -117 -299 -117 q-92 0 -153.5 28.5t-117.5 96.5v-88h-295v88q-117 -125 -317 -125q-227 0 -362.5 135t-135.5 365zM391 471q0 -109 72 -186.5t174 -77.5q100 0 164.5 70.5t64.5 179.5q0 119 -66.5 194.5t-170.5 75.5q-100 0 -169 -73.5t-69 -182.5zM1169 567h412q-37 160 -199 160 q-82 0 -131 -38t-82 -122z" />
<glyph unicode="&#xe7;" horiz-adv-x="968" d="M59 469q0 225 146.5 370.5t372.5 145.5q205 0 395 -164l-207 -188q-76 78 -174 78q-94 0 -157.5 -68t-63.5 -166q0 -102 67.5 -171.5t167.5 -69.5q76 -1 160 67l186 -199q-158 -141 -372 -141q-225 0 -373 144.5t-148 361.5zM317 -315q63 33 102.5 70.5t90.5 119.5 l203 -88q-66 -80 -120.5 -121t-150.5 -84z" />
<glyph unicode="&#xe8;" horiz-adv-x="1153" d="M59 477q0 225 142.5 366.5t369.5 141.5q238 0 383.5 -147.5t145.5 -391.5v-38h-717q16 -80 72.5 -126t140.5 -46q133 0 188 104l287 -72q-39 -76 -68.5 -113.5t-84.5 -80.5q-143 -111 -326 -111q-233 0 -383 144.5t-150 369.5zM225 1413h299l172 -290h-182zM377 571h405 q-33 156 -204 156q-166 0 -201 -156z" />
<glyph unicode="&#xe9;" horiz-adv-x="1153" d="M59 477q0 225 142.5 366.5t369.5 141.5q238 0 383.5 -147.5t145.5 -391.5v-38h-717q16 -80 72.5 -126t140.5 -46q133 0 188 104l287 -72q-39 -76 -68.5 -113.5t-84.5 -80.5q-143 -111 -326 -111q-233 0 -383 144.5t-150 369.5zM377 571h405q-33 156 -204 156 q-166 0 -201 -156zM445 1123l170 290h299l-287 -290h-182z" />
<glyph unicode="&#xea;" horiz-adv-x="1153" d="M59 477q0 225 142.5 366.5t369.5 141.5q238 0 383.5 -147.5t145.5 -391.5v-38h-717q16 -80 72.5 -126t140.5 -46q133 0 188 104l287 -72q-39 -76 -68.5 -113.5t-84.5 -80.5q-143 -111 -326 -111q-233 0 -383 144.5t-150 369.5zM240 1123l207 290h287l192 -290h-205 l-135 139l-141 -139h-205zM377 571h405q-33 156 -204 156q-166 0 -201 -156z" />
<glyph unicode="&#xeb;" horiz-adv-x="1153" d="M59 477q0 225 142.5 366.5t369.5 141.5q238 0 383.5 -147.5t145.5 -391.5v-38h-717q16 -80 72.5 -126t140.5 -46q133 0 188 104l287 -72q-39 -76 -68.5 -113.5t-84.5 -80.5q-143 -111 -326 -111q-233 0 -383 144.5t-150 369.5zM195 1276.5q0 65.5 46 110.5t114 45 q66 0 111.5 -45t45.5 -111q0 -63 -46 -108t-111 -45q-68 0 -114 44t-46 109.5zM377 571h405q-33 156 -204 156q-166 0 -201 -156zM646 1276q0 66 46 111t111 45q68 0 114 -45t46 -110.5t-46 -109.5t-114 -44q-66 0 -111.5 45t-45.5 108z" />
<glyph unicode="&#xec;" horiz-adv-x="542" d="M-66 1376h299l172 -290h-182zM117 0v948h309v-948h-309z" />
<glyph unicode="&#xed;" horiz-adv-x="542" d="M117 0v948h309v-948h-309zM119 1086l170 290h299l-287 -290h-182z" />
<glyph unicode="&#xee;" horiz-adv-x="542" d="M-74 1086l207 290h287l192 -290h-205l-135 139l-141 -139h-205zM117 0v948h309v-948h-309z" />
<glyph unicode="&#xef;" horiz-adv-x="542" d="M-115 1239.5q0 65.5 46 110.5t114 45q66 0 111.5 -45t45.5 -111q0 -63 -46 -108t-111 -45q-68 0 -114 44t-46 109.5zM117 0v948h309v-948h-309zM336 1239q0 66 46 111t111 45q68 0 114 -45t46 -110.5t-46 -109.5t-114 -44q-66 0 -111.5 45t-45.5 108z" />
<glyph unicode="&#xf1;" horiz-adv-x="1110" d="M115 0v948h311v-106q47 80 101.5 111.5t142.5 31.5q154 0 241 -92q49 -51 68.5 -117.5t19.5 -193.5v-582h-309v578q-2 72 -37 110.5t-96 38.5q-59 0 -95 -42t-36 -112v-573h-311zM202 1122q35 256 219 256q59 0 166 -41q16 -6 19 -8l16 -4q14 -6 27 -7q33 1 43 64h196 q-14 -117 -73.5 -186.5t-145.5 -69.5q-55 0 -117 24l-49 21l-22 8l-17 6q-16 4 -20 4q-33 0 -45 -67h-197z" />
<glyph unicode="&#xf2;" horiz-adv-x="1183" d="M59 473q0 225 148.5 368.5t382.5 143.5q229 0 381.5 -146.5t152.5 -367.5q0 -217 -152.5 -362.5t-381.5 -145.5q-231 0 -381 143.5t-150 366.5zM231 1413h299l172 -290h-182zM371 475q0 -109 60.5 -174t160.5 -65q98 0 158.5 65.5t60.5 171.5q0 109 -59.5 173.5 t-159.5 64.5q-98 0 -159.5 -65.5t-61.5 -170.5z" />
<glyph unicode="&#xf3;" horiz-adv-x="1183" d="M59 473q0 225 148.5 368.5t382.5 143.5q229 0 381.5 -146.5t152.5 -367.5q0 -217 -152.5 -362.5t-381.5 -145.5q-231 0 -381 143.5t-150 366.5zM371 475q0 -109 60.5 -174t160.5 -65q98 0 158.5 65.5t60.5 171.5q0 109 -59.5 173.5t-159.5 64.5q-98 0 -159.5 -65.5 t-61.5 -170.5zM447 1123l170 290h299l-287 -290h-182z" />
<glyph unicode="&#xf4;" horiz-adv-x="1183" d="M59 473q0 225 148.5 368.5t382.5 143.5q229 0 381.5 -146.5t152.5 -367.5q0 -217 -152.5 -362.5t-381.5 -145.5q-231 0 -381 143.5t-150 366.5zM238 1123l207 290h287l192 -290h-205l-135 139l-141 -139h-205zM371 475q0 -109 60.5 -174t160.5 -65q98 0 158.5 65.5 t60.5 171.5q0 109 -59.5 173.5t-159.5 64.5q-98 0 -159.5 -65.5t-61.5 -170.5z" />
<glyph unicode="&#xf5;" horiz-adv-x="1183" d="M59 473q0 225 148.5 368.5t382.5 143.5q229 0 381.5 -146.5t152.5 -367.5q0 -217 -152.5 -362.5t-381.5 -145.5q-231 0 -381 143.5t-150 366.5zM248 1122q35 256 219 256q59 0 166 -41q16 -6 19 -8l16 -4q14 -6 27 -7q33 1 43 64h196q-14 -117 -73.5 -186.5t-145.5 -69.5 q-55 0 -117 24l-49 21l-22 8l-17 6q-16 4 -20 4q-33 0 -45 -67h-197zM371 475q0 -109 60.5 -174t160.5 -65q98 0 158.5 65.5t60.5 171.5q0 109 -59.5 173.5t-159.5 64.5q-98 0 -159.5 -65.5t-61.5 -170.5z" />
<glyph unicode="&#xf6;" horiz-adv-x="1183" d="M59 473q0 225 148.5 368.5t382.5 143.5q229 0 381.5 -146.5t152.5 -367.5q0 -217 -152.5 -362.5t-381.5 -145.5q-231 0 -381 143.5t-150 366.5zM207 1276.5q0 65.5 46 110.5t114 45q66 0 111.5 -45t45.5 -111q0 -63 -46 -108t-111 -45q-68 0 -114 44t-46 109.5zM371 475 q0 -109 60.5 -174t160.5 -65q98 0 158.5 65.5t60.5 171.5q0 109 -59.5 173.5t-159.5 64.5q-98 0 -159.5 -65.5t-61.5 -170.5zM658 1276q0 66 46 111t111 45q68 0 114 -45t46 -110.5t-46 -109.5t-114 -44q-66 0 -111.5 45t-45.5 108z" />
<glyph unicode="&#xf7;" d="M74 784h874v-190h-872zM379 344q0 53 39 92t94 39q49 -2 84 -40t35 -91t-35 -89t-86 -36q-53 0 -92 37t-39 88zM379 1022q0 53 39 92t94 39q49 -2 84 -40t35 -91q0 -49 -35 -85t-86 -36q-53 0 -92 36t-39 85z" />
<glyph unicode="&#xf8;" horiz-adv-x="1185" d="M59 471q0 225 148.5 369.5t378.5 144.5q195 0 354 -115l107 99l65 -72l-100 -96q113 -160 112 -334q0 -213 -152.5 -358.5t-377.5 -145.5q-194 0 -354 113l-109 -94l-68 71l105 97q-109 129 -109 321zM358 465q0 -53 27 -113l342 320q-55 37 -131 37q-109 0 -173.5 -65.5 t-64.5 -178.5zM453 276q68 -41 143 -40q100 0 162.5 65.5t62.5 171.5q0 72 -26 125z" />
<glyph unicode="&#xf9;" horiz-adv-x="1081" d="M102 350v598h310v-573q0 -74 34.5 -115t98.5 -41q57 0 90 36t33 97v596h311v-596q0 -111 -25.5 -178.5t-85.5 -114.5q-125 -96 -325 -96q-440 0 -441 387zM184 1376h299l172 -290h-182z" />
<glyph unicode="&#xfa;" horiz-adv-x="1081" d="M102 350v598h310v-573q0 -74 34.5 -115t98.5 -41q57 0 90 36t33 97v596h311v-596q0 -111 -25.5 -178.5t-85.5 -114.5q-125 -96 -325 -96q-440 0 -441 387zM402 1086l170 290h299l-287 -290h-182z" />
<glyph unicode="&#xfb;" horiz-adv-x="1081" d="M102 350v598h310v-573q0 -74 34.5 -115t98.5 -41q57 0 90 36t33 97v596h311v-596q0 -111 -25.5 -178.5t-85.5 -114.5q-125 -96 -325 -96q-440 0 -441 387zM199 1086l207 290h287l192 -290h-205l-135 139l-141 -139h-205z" />
<glyph unicode="&#xfc;" horiz-adv-x="1081" d="M102 350v598h310v-573q0 -74 34.5 -115t98.5 -41q57 0 90 36t33 97v596h311v-596q0 -111 -25.5 -178.5t-85.5 -114.5q-125 -96 -325 -96q-440 0 -441 387zM156 1239.5q0 65.5 46 110.5t114 45q66 0 111.5 -45t45.5 -111q0 -63 -46 -108t-111 -45q-68 0 -114 44t-46 109.5 zM607 1239q0 66 46 111t111 45q68 0 114 -45t46 -110.5t-46 -109.5t-114 -44q-66 0 -111.5 45t-45.5 108z" />
<glyph unicode="&#xff;" horiz-adv-x="989" d="M-10 948h329l162 -497l191 497h327l-518 -1370h-331l167 438zM111 1239.5q0 65.5 46 110.5t114 45q66 0 111.5 -45t45.5 -111q0 -63 -46 -108t-111 -45q-68 0 -114 44t-46 109.5zM562 1239q0 66 46 111t111 45q68 0 114 -45t46 -110.5t-46 -109.5t-114 -44 q-66 0 -111.5 45t-45.5 108z" />
<glyph unicode="&#x152;" horiz-adv-x="2056" d="M74 686q0 299 202.5 503t503.5 204q141 0 269 -52q76 -33 157 -98v121h762v-268h-436v-279h436v-268h-436v-281h436v-268h-762v123q-68 -66 -147 -98q-135 -51 -277 -52q-303 0 -505.5 204t-202.5 509zM410 678q0 -170 113.5 -284.5t283.5 -114.5q174 0 292 119.5 t118 295.5q0 166 -115 278.5t-283 112.5q-172 0 -290.5 -118.5t-118.5 -288.5z" />
<glyph unicode="&#x153;" horiz-adv-x="1841" d="M59 475q0 225 146.5 367.5t378.5 142.5q233 0 362 -139q150 139 367 139q162 0 285.5 -78t179.5 -215q29 -74 38 -129t9 -164h-709q8 -76 65.5 -119.5t145.5 -43.5q141 0 217 100l256 -80q-53 -109 -135 -174q-145 -119 -340 -119q-221 0 -379 143q-147 -143 -364 -143 q-229 0 -376 143.5t-147 368.5zM371 481q0 -102 64.5 -173.5t156.5 -71.5t154.5 64.5t62.5 160.5q0 106 -62.5 178t-156.5 72q-92 0 -155.5 -66.5t-63.5 -163.5zM1104 565h420q-39 162 -209 162q-162 0 -211 -162z" />
<glyph unicode="&#x178;" horiz-adv-x="1167" d="M-27 1364h394l223 -420l217 420h389l-442 -762v-602h-332v602zM201 1659.5q0 65.5 46 110.5t114 45q66 0 111.5 -45t45.5 -111q0 -63 -46 -108t-111 -45q-68 0 -114 44t-46 109.5zM652 1659q0 66 46 111t111 45q68 0 114 -45t46 -110.5t-46 -109.5t-114 -44 q-66 0 -111.5 45t-45.5 108z" />
<glyph unicode="&#x2c6;" d="M168 1096l207 290h287l192 -290h-205l-135 139l-141 -139h-205z" />
<glyph unicode="&#x2dc;" d="M182 1102q35 256 219 256q59 0 166 -41q16 -6 19 -8l16 -4q14 -6 27 -7q33 1 43 64h196q-14 -117 -73.5 -186.5t-145.5 -69.5q-55 0 -117 24l-49 21l-22 8l-17 6q-16 4 -20 4q-33 0 -45 -67h-197z" />
<glyph unicode="&#x2000;" horiz-adv-x="947" />
<glyph unicode="&#x2001;" horiz-adv-x="1895" />
<glyph unicode="&#x2002;" horiz-adv-x="947" />
<glyph unicode="&#x2003;" horiz-adv-x="1895" />
<glyph unicode="&#x2004;" horiz-adv-x="631" />
<glyph unicode="&#x2005;" horiz-adv-x="473" />
<glyph unicode="&#x2006;" horiz-adv-x="315" />
<glyph unicode="&#x2007;" horiz-adv-x="315" />
<glyph unicode="&#x2008;" horiz-adv-x="236" />
<glyph unicode="&#x2009;" horiz-adv-x="379" />
<glyph unicode="&#x200a;" horiz-adv-x="105" />
<glyph unicode="&#x2010;" horiz-adv-x="466" d="M0 365v270h467v-270h-467z" />
<glyph unicode="&#x2011;" horiz-adv-x="466" d="M0 365v270h467v-270h-467z" />
<glyph unicode="&#x2012;" horiz-adv-x="466" d="M0 365v270h467v-270h-467z" />
<glyph unicode="&#x2013;" d="M74 784h874v-190h-872z" />
<glyph unicode="&#x2014;" horiz-adv-x="1415" d="M0 385v229h1415v-229h-1415z" />
<glyph unicode="&#x2018;" horiz-adv-x="497" d="M63 961l150 432l205 -52l-90 -444z" />
<glyph unicode="&#x2019;" horiz-adv-x="497" d="M78 946l90 447l264 -66l-149 -430z" />
<glyph unicode="&#x201c;" horiz-adv-x="919" d="M63 924l160 469l213 -52l-96 -487zM467 924l158 469l215 -52l-97 -487z" />
<glyph unicode="&#x201d;" horiz-adv-x="919" d="M78 905l96 488l279 -72l-160 -467zM481 905l97 488l276 -72l-158 -467z" />
<glyph unicode="&#x201e;" horiz-adv-x="919" d="M78 -172l96 485l279 -69l-160 -467zM481 -172l97 485l276 -69l-158 -467z" />
<glyph unicode="&#x2022;" horiz-adv-x="978" d="M264 688q0 92 65.5 157.5t157.5 65.5q94 0 159 -65.5t65 -157.5t-65.5 -157.5t-158 -65.5t-158 65.5t-65.5 157.5z" />
<glyph unicode="&#x2026;" horiz-adv-x="1689" d="M109 139q0 76 48 125t123.5 49t124 -49t48.5 -125t-48.5 -123t-124 -47t-123.5 48.5t-48 121.5zM672 139q0 76 48 125t124 49t124 -49t48 -125t-48 -123t-124 -47t-124 48.5t-48 121.5zM1235 139q0 76 48 125t124 49t124 -49t48 -125t-48 -123t-124 -47t-124 48.5 t-48 121.5z" />
<glyph unicode="&#x202f;" horiz-adv-x="379" />
<glyph unicode="&#x2039;" horiz-adv-x="530" d="M68 492l188 342h193l-193 -342l193 -334h-191z" />
<glyph unicode="&#x203a;" horiz-adv-x="530" d="M82 158l192 342l-192 334h190l191 -334l-191 -342h-190z" />
<glyph unicode="&#x205f;" horiz-adv-x="473" />
<glyph unicode="&#x2122;" horiz-adv-x="1775" d="M14 1200v164h609v-164h-195v-614h-219v614h-195zM702 588v778h252l220 -405l219 403h252v-778h-220v418l-251 -455l-252 455v-416h-220z" />
<glyph unicode="&#xe000;" horiz-adv-x="952" d="M0 0v952h952v-952h-952z" />
<glyph unicode="&#xfb01;" horiz-adv-x="1144" d="M43 690v258h92v17q0 203 97.5 301t295.5 98h29v-287q-111 -14 -111 -112v-15h111v-260h-111v-690h-309v690h-94zM707 1222.5q0 71.5 47 119t118.5 47.5t118.5 -47.5t47 -119t-47 -118.5t-118.5 -47t-118.5 47t-47 118.5zM719 0v948h309v-948h-309z" />
<glyph unicode="&#xfb02;" horiz-adv-x="1144" d="M43 690v258h92v17q0 203 97.5 301t295.5 98h29v-287q-111 -14 -111 -112v-15h111v-260h-111v-690h-309v690h-94zM719 0v1364h309v-1364h-309z" />
</font>
</defs>
</svg>
